<?xml version="1.0" standalone="no"?>
 <!DOCTYPE svg PUBLIC "-//W3C//DTD SVG 1.1//EN" 
 "http://www.w3.org/Graphics/SVG/1.1/DTD/svg11.dtd"> 
<svg
  xmlns:svg="http://www.w3.org/2000/svg"
  xmlns="http://www.w3.org/2000/svg"
  xmlns:xlink="http://www.w3.org/1999/xlink"
  version="1.1"
  width="297.0022mm" height="210.0072mm" viewBox="0.0000 0.0000 297.0022 210.0072">
<title>SVG Image created as cap_only.svg date 2026/04/05 13:51:41 </title>
  <desc>Image generated by Eeschema-SVG </desc>
<g style="fill:#000000; fill-opacity:1.0000;stroke:#000000; stroke-opacity:1.0000;
stroke-linecap:round; stroke-linejoin:round;"
 transform="translate(0 0) scale(1 1)">
</g>
<g style="fill:#F5F4EF; fill-opacity:1.0000; 
stroke:#F5F4EF; stroke-width:0.0001; stroke-opacity:1; 
stroke-linecap:round; stroke-linejoin:round;">
<rect x="0.000000" y="0.000000" width="297.002200" height="210.007200" rx="0.000000" />
</g>
<g style="fill:none; 
stroke:#840000; stroke-width:0.1524; stroke-opacity:1; 
stroke-linecap:round; stroke-linejoin:round;">
<path d="M177.0022 166.0072
L285.0022 166.0072
L285.0022 198.0072
L177.0022 198.0072
L177.0022 166.0072
" />
<path d="M10.0000 10.0000
L287.0022 10.0000
L287.0022 200.0072
L10.0000 200.0072
L10.0000 10.0000
" />
<path d="M12.0000 12.0000
L285.0022 12.0000
L285.0022 198.0072
L12.0000 198.0072
L12.0000 12.0000
" />
<path d="M60.0000 12.0000
L60.0000 10.0000
" />
<path d="M110.0000 12.0000
L110.0000 10.0000
" />
<path d="M160.0000 12.0000
L160.0000 10.0000
" />
<path d="M210.0000 12.0000
L210.0000 10.0000
" />
<path d="M260.0000 12.0000
L260.0000 10.0000
" />
<text x="35.0000" y="11.6500"
textLength="1.4353" font-size="1.7333" lengthAdjust="spacingAndGlyphs"
text-anchor="start" opacity="0" stroke-opacity="0">1</text>
<g class="stroked-text"><desc>1</desc>
<path d="M36.0906 11.5935
L35.3478 11.5935
" />
<path d="M35.7192 11.5935
L35.7192 10.2935
" />
<path d="M35.7192 10.2935
L35.5954 10.4792
" />
<path d="M35.5954 10.4792
L35.4716 10.6030
" />
<path d="M35.4716 10.6030
L35.3478 10.6649
" />
</g><text x="85.0000" y="11.6500"
textLength="1.4353" font-size="1.7333" lengthAdjust="spacingAndGlyphs"
text-anchor="start" opacity="0" stroke-opacity="0">2</text>
<g class="stroked-text"><desc>2</desc>
<path d="M85.3478 10.4173
L85.4097 10.3554
" />
<path d="M85.4097 10.3554
L85.5335 10.2935
" />
<path d="M85.5335 10.2935
L85.8430 10.2935
" />
<path d="M85.8430 10.2935
L85.9668 10.3554
" />
<path d="M85.9668 10.3554
L86.0287 10.4173
" />
<path d="M86.0287 10.4173
L86.0906 10.5411
" />
<path d="M86.0906 10.5411
L86.0906 10.6649
" />
<path d="M86.0906 10.6649
L86.0287 10.8506
" />
<path d="M86.0287 10.8506
L85.2859 11.5935
" />
<path d="M85.2859 11.5935
L86.0906 11.5935
" />
</g><text x="135.0000" y="11.6500"
textLength="1.4353" font-size="1.7333" lengthAdjust="spacingAndGlyphs"
text-anchor="start" opacity="0" stroke-opacity="0">3</text>
<g class="stroked-text"><desc>3</desc>
<path d="M135.2859 10.2935
L136.0906 10.2935
" />
<path d="M136.0906 10.2935
L135.6573 10.7887
" />
<path d="M135.6573 10.7887
L135.8430 10.7887
" />
<path d="M135.8430 10.7887
L135.9668 10.8506
" />
<path d="M135.9668 10.8506
L136.0287 10.9125
" />
<path d="M136.0287 10.9125
L136.0906 11.0363
" />
<path d="M136.0906 11.0363
L136.0906 11.3458
" />
<path d="M136.0906 11.3458
L136.0287 11.4696
" />
<path d="M136.0287 11.4696
L135.9668 11.5316
" />
<path d="M135.9668 11.5316
L135.8430 11.5935
" />
<path d="M135.8430 11.5935
L135.4716 11.5935
" />
<path d="M135.4716 11.5935
L135.3478 11.5316
" />
<path d="M135.3478 11.5316
L135.2859 11.4696
" />
</g><text x="185.0000" y="11.6500"
textLength="1.4353" font-size="1.7333" lengthAdjust="spacingAndGlyphs"
text-anchor="start" opacity="0" stroke-opacity="0">4</text>
<g class="stroked-text"><desc>4</desc>
<path d="M185.9668 10.7268
L185.9668 11.5935
" />
<path d="M185.6573 10.2316
L185.3478 11.1601
" />
<path d="M185.3478 11.1601
L186.1525 11.1601
" />
</g><text x="235.0000" y="11.6500"
textLength="1.4353" font-size="1.7333" lengthAdjust="spacingAndGlyphs"
text-anchor="start" opacity="0" stroke-opacity="0">5</text>
<g class="stroked-text"><desc>5</desc>
<path d="M236.0287 10.2935
L235.4097 10.2935
" />
<path d="M235.4097 10.2935
L235.3478 10.9125
" />
<path d="M235.3478 10.9125
L235.4097 10.8506
" />
<path d="M235.4097 10.8506
L235.5335 10.7887
" />
<path d="M235.5335 10.7887
L235.8430 10.7887
" />
<path d="M235.8430 10.7887
L235.9668 10.8506
" />
<path d="M235.9668 10.8506
L236.0287 10.9125
" />
<path d="M236.0287 10.9125
L236.0906 11.0363
" />
<path d="M236.0906 11.0363
L236.0906 11.3458
" />
<path d="M236.0906 11.3458
L236.0287 11.4696
" />
<path d="M236.0287 11.4696
L235.9668 11.5316
" />
<path d="M235.9668 11.5316
L235.8430 11.5935
" />
<path d="M235.8430 11.5935
L235.5335 11.5935
" />
<path d="M235.5335 11.5935
L235.4097 11.5316
" />
<path d="M235.4097 11.5316
L235.3478 11.4696
" />
</g><text x="285.0000" y="11.6500"
textLength="1.4353" font-size="1.7333" lengthAdjust="spacingAndGlyphs"
text-anchor="start" opacity="0" stroke-opacity="0">6</text>
<g class="stroked-text"><desc>6</desc>
<path d="M285.9668 10.2935
L285.7192 10.2935
" />
<path d="M285.7192 10.2935
L285.5954 10.3554
" />
<path d="M285.5954 10.3554
L285.5335 10.4173
" />
<path d="M285.5335 10.4173
L285.4097 10.6030
" />
<path d="M285.4097 10.6030
L285.3478 10.8506
" />
<path d="M285.3478 10.8506
L285.3478 11.3458
" />
<path d="M285.3478 11.3458
L285.4097 11.4696
" />
<path d="M285.4097 11.4696
L285.4716 11.5316
" />
<path d="M285.4716 11.5316
L285.5954 11.5935
" />
<path d="M285.5954 11.5935
L285.8430 11.5935
" />
<path d="M285.8430 11.5935
L285.9668 11.5316
" />
<path d="M285.9668 11.5316
L286.0287 11.4696
" />
<path d="M286.0287 11.4696
L286.0906 11.3458
" />
<path d="M286.0906 11.3458
L286.0906 11.0363
" />
<path d="M286.0906 11.0363
L286.0287 10.9125
" />
<path d="M286.0287 10.9125
L285.9668 10.8506
" />
<path d="M285.9668 10.8506
L285.8430 10.7887
" />
<path d="M285.8430 10.7887
L285.5954 10.7887
" />
<path d="M285.5954 10.7887
L285.4716 10.8506
" />
<path d="M285.4716 10.8506
L285.4097 10.9125
" />
<path d="M285.4097 10.9125
L285.3478 11.0363
" />
</g><path d="M60.0000 198.0072
L60.0000 200.0072
" />
<path d="M110.0000 198.0072
L110.0000 200.0072
" />
<path d="M160.0000 198.0072
L160.0000 200.0072
" />
<path d="M210.0000 198.0072
L210.0000 200.0072
" />
<path d="M260.0000 198.0072
L260.0000 200.0072
" />
<text x="35.0000" y="199.6572"
textLength="1.4353" font-size="1.7333" lengthAdjust="spacingAndGlyphs"
text-anchor="start" opacity="0" stroke-opacity="0">1</text>
<g class="stroked-text"><desc>1</desc>
<path d="M36.0906 199.6007
L35.3478 199.6007
" />
<path d="M35.7192 199.6007
L35.7192 198.3007
" />
<path d="M35.7192 198.3007
L35.5954 198.4864
" />
<path d="M35.5954 198.4864
L35.4716 198.6102
" />
<path d="M35.4716 198.6102
L35.3478 198.6721
" />
</g><text x="85.0000" y="199.6572"
textLength="1.4353" font-size="1.7333" lengthAdjust="spacingAndGlyphs"
text-anchor="start" opacity="0" stroke-opacity="0">2</text>
<g class="stroked-text"><desc>2</desc>
<path d="M85.3478 198.4245
L85.4097 198.3626
" />
<path d="M85.4097 198.3626
L85.5335 198.3007
" />
<path d="M85.5335 198.3007
L85.8430 198.3007
" />
<path d="M85.8430 198.3007
L85.9668 198.3626
" />
<path d="M85.9668 198.3626
L86.0287 198.4245
" />
<path d="M86.0287 198.4245
L86.0906 198.5483
" />
<path d="M86.0906 198.5483
L86.0906 198.6721
" />
<path d="M86.0906 198.6721
L86.0287 198.8578
" />
<path d="M86.0287 198.8578
L85.2859 199.6007
" />
<path d="M85.2859 199.6007
L86.0906 199.6007
" />
</g><text x="135.0000" y="199.6572"
textLength="1.4353" font-size="1.7333" lengthAdjust="spacingAndGlyphs"
text-anchor="start" opacity="0" stroke-opacity="0">3</text>
<g class="stroked-text"><desc>3</desc>
<path d="M135.2859 198.3007
L136.0906 198.3007
" />
<path d="M136.0906 198.3007
L135.6573 198.7959
" />
<path d="M135.6573 198.7959
L135.8430 198.7959
" />
<path d="M135.8430 198.7959
L135.9668 198.8578
" />
<path d="M135.9668 198.8578
L136.0287 198.9197
" />
<path d="M136.0287 198.9197
L136.0906 199.0435
" />
<path d="M136.0906 199.0435
L136.0906 199.3530
" />
<path d="M136.0906 199.3530
L136.0287 199.4768
" />
<path d="M136.0287 199.4768
L135.9668 199.5388
" />
<path d="M135.9668 199.5388
L135.8430 199.6007
" />
<path d="M135.8430 199.6007
L135.4716 199.6007
" />
<path d="M135.4716 199.6007
L135.3478 199.5388
" />
<path d="M135.3478 199.5388
L135.2859 199.4768
" />
</g><text x="185.0000" y="199.6572"
textLength="1.4353" font-size="1.7333" lengthAdjust="spacingAndGlyphs"
text-anchor="start" opacity="0" stroke-opacity="0">4</text>
<g class="stroked-text"><desc>4</desc>
<path d="M185.9668 198.7340
L185.9668 199.6007
" />
<path d="M185.6573 198.2388
L185.3478 199.1673
" />
<path d="M185.3478 199.1673
L186.1525 199.1673
" />
</g><text x="235.0000" y="199.6572"
textLength="1.4353" font-size="1.7333" lengthAdjust="spacingAndGlyphs"
text-anchor="start" opacity="0" stroke-opacity="0">5</text>
<g class="stroked-text"><desc>5</desc>
<path d="M236.0287 198.3007
L235.4097 198.3007
" />
<path d="M235.4097 198.3007
L235.3478 198.9197
" />
<path d="M235.3478 198.9197
L235.4097 198.8578
" />
<path d="M235.4097 198.8578
L235.5335 198.7959
" />
<path d="M235.5335 198.7959
L235.8430 198.7959
" />
<path d="M235.8430 198.7959
L235.9668 198.8578
" />
<path d="M235.9668 198.8578
L236.0287 198.9197
" />
<path d="M236.0287 198.9197
L236.0906 199.0435
" />
<path d="M236.0906 199.0435
L236.0906 199.3530
" />
<path d="M236.0906 199.3530
L236.0287 199.4768
" />
<path d="M236.0287 199.4768
L235.9668 199.5388
" />
<path d="M235.9668 199.5388
L235.8430 199.6007
" />
<path d="M235.8430 199.6007
L235.5335 199.6007
" />
<path d="M235.5335 199.6007
L235.4097 199.5388
" />
<path d="M235.4097 199.5388
L235.3478 199.4768
" />
</g><text x="285.0000" y="199.6572"
textLength="1.4353" font-size="1.7333" lengthAdjust="spacingAndGlyphs"
text-anchor="start" opacity="0" stroke-opacity="0">6</text>
<g class="stroked-text"><desc>6</desc>
<path d="M285.9668 198.3007
L285.7192 198.3007
" />
<path d="M285.7192 198.3007
L285.5954 198.3626
" />
<path d="M285.5954 198.3626
L285.5335 198.4245
" />
<path d="M285.5335 198.4245
L285.4097 198.6102
" />
<path d="M285.4097 198.6102
L285.3478 198.8578
" />
<path d="M285.3478 198.8578
L285.3478 199.3530
" />
<path d="M285.3478 199.3530
L285.4097 199.4768
" />
<path d="M285.4097 199.4768
L285.4716 199.5388
" />
<path d="M285.4716 199.5388
L285.5954 199.6007
" />
<path d="M285.5954 199.6007
L285.8430 199.6007
" />
<path d="M285.8430 199.6007
L285.9668 199.5388
" />
<path d="M285.9668 199.5388
L286.0287 199.4768
" />
<path d="M286.0287 199.4768
L286.0906 199.3530
" />
<path d="M286.0906 199.3530
L286.0906 199.0435
" />
<path d="M286.0906 199.0435
L286.0287 198.9197
" />
<path d="M286.0287 198.9197
L285.9668 198.8578
" />
<path d="M285.9668 198.8578
L285.8430 198.7959
" />
<path d="M285.8430 198.7959
L285.5954 198.7959
" />
<path d="M285.5954 198.7959
L285.4716 198.8578
" />
<path d="M285.4716 198.8578
L285.4097 198.9197
" />
<path d="M285.4097 198.9197
L285.3478 199.0435
" />
</g><path d="M10.0000 60.0000
L12.0000 60.0000
" />
<path d="M10.0000 110.0000
L12.0000 110.0000
" />
<path d="M10.0000 160.0000
L12.0000 160.0000
" />
<text x="11.0000" y="35.6500"
textLength="1.3115" font-size="1.7333" lengthAdjust="spacingAndGlyphs"
text-anchor="middle" opacity="0" stroke-opacity="0">A</text>
<g class="stroked-text"><desc>A</desc>
<path d="M10.6905 35.2220
L11.3095 35.2220
" />
<path d="M10.5667 35.5935
L11.0000 34.2935
" />
<path d="M11.0000 34.2935
L11.4333 35.5935
" />
</g><text x="11.0000" y="85.6500"
textLength="1.4972" font-size="1.7333" lengthAdjust="spacingAndGlyphs"
text-anchor="middle" opacity="0" stroke-opacity="0">B</text>
<g class="stroked-text"><desc>B</desc>
<path d="M11.0928 84.9125
L11.2785 84.9744
" />
<path d="M11.2785 84.9744
L11.3404 85.0363
" />
<path d="M11.3404 85.0363
L11.4023 85.1601
" />
<path d="M11.4023 85.1601
L11.4023 85.3458
" />
<path d="M11.4023 85.3458
L11.3404 85.4696
" />
<path d="M11.3404 85.4696
L11.2785 85.5316
" />
<path d="M11.2785 85.5316
L11.1547 85.5935
" />
<path d="M11.1547 85.5935
L10.6595 85.5935
" />
<path d="M10.6595 85.5935
L10.6595 84.2935
" />
<path d="M10.6595 84.2935
L11.0928 84.2935
" />
<path d="M11.0928 84.2935
L11.2166 84.3554
" />
<path d="M11.2166 84.3554
L11.2785 84.4173
" />
<path d="M11.2785 84.4173
L11.3404 84.5411
" />
<path d="M11.3404 84.5411
L11.3404 84.6649
" />
<path d="M11.3404 84.6649
L11.2785 84.7887
" />
<path d="M11.2785 84.7887
L11.2166 84.8506
" />
<path d="M11.2166 84.8506
L11.0928 84.9125
" />
<path d="M11.0928 84.9125
L10.6595 84.9125
" />
</g><text x="11.0000" y="135.6500"
textLength="1.4972" font-size="1.7333" lengthAdjust="spacingAndGlyphs"
text-anchor="middle" opacity="0" stroke-opacity="0">C</text>
<g class="stroked-text"><desc>C</desc>
<path d="M11.4023 135.4696
L11.3404 135.5316
" />
<path d="M11.3404 135.5316
L11.1547 135.5935
" />
<path d="M11.1547 135.5935
L11.0309 135.5935
" />
<path d="M11.0309 135.5935
L10.8452 135.5316
" />
<path d="M10.8452 135.5316
L10.7214 135.4077
" />
<path d="M10.7214 135.4077
L10.6595 135.2839
" />
<path d="M10.6595 135.2839
L10.5976 135.0363
" />
<path d="M10.5976 135.0363
L10.5976 134.8506
" />
<path d="M10.5976 134.8506
L10.6595 134.6030
" />
<path d="M10.6595 134.6030
L10.7214 134.4792
" />
<path d="M10.7214 134.4792
L10.8452 134.3554
" />
<path d="M10.8452 134.3554
L11.0309 134.2935
" />
<path d="M11.0309 134.2935
L11.1547 134.2935
" />
<path d="M11.1547 134.2935
L11.3404 134.3554
" />
<path d="M11.3404 134.3554
L11.4023 134.4173
" />
</g><text x="11.0000" y="185.6500"
textLength="1.4972" font-size="1.7333" lengthAdjust="spacingAndGlyphs"
text-anchor="middle" opacity="0" stroke-opacity="0">D</text>
<g class="stroked-text"><desc>D</desc>
<path d="M10.6595 185.5935
L10.6595 184.2935
" />
<path d="M10.6595 184.2935
L10.9690 184.2935
" />
<path d="M10.9690 184.2935
L11.1547 184.3554
" />
<path d="M11.1547 184.3554
L11.2785 184.4792
" />
<path d="M11.2785 184.4792
L11.3404 184.6030
" />
<path d="M11.3404 184.6030
L11.4023 184.8506
" />
<path d="M11.4023 184.8506
L11.4023 185.0363
" />
<path d="M11.4023 185.0363
L11.3404 185.2839
" />
<path d="M11.3404 185.2839
L11.2785 185.4077
" />
<path d="M11.2785 185.4077
L11.1547 185.5316
" />
<path d="M11.1547 185.5316
L10.9690 185.5935
" />
<path d="M10.9690 185.5935
L10.6595 185.5935
" />
</g><path d="M287.0022 60.0000
L285.0022 60.0000
" />
<path d="M287.0022 110.0000
L285.0022 110.0000
" />
<path d="M287.0022 160.0000
L285.0022 160.0000
" />
<text x="286.0022" y="35.6500"
textLength="1.3115" font-size="1.7333" lengthAdjust="spacingAndGlyphs"
text-anchor="middle" opacity="0" stroke-opacity="0">A</text>
<g class="stroked-text"><desc>A</desc>
<path d="M285.6927 35.2220
L286.3117 35.2220
" />
<path d="M285.5689 35.5935
L286.0022 34.2935
" />
<path d="M286.0022 34.2935
L286.4355 35.5935
" />
</g><text x="286.0022" y="85.6500"
textLength="1.4972" font-size="1.7333" lengthAdjust="spacingAndGlyphs"
text-anchor="middle" opacity="0" stroke-opacity="0">B</text>
<g class="stroked-text"><desc>B</desc>
<path d="M286.0950 84.9125
L286.2807 84.9744
" />
<path d="M286.2807 84.9744
L286.3426 85.0363
" />
<path d="M286.3426 85.0363
L286.4045 85.1601
" />
<path d="M286.4045 85.1601
L286.4045 85.3458
" />
<path d="M286.4045 85.3458
L286.3426 85.4696
" />
<path d="M286.3426 85.4696
L286.2807 85.5316
" />
<path d="M286.2807 85.5316
L286.1569 85.5935
" />
<path d="M286.1569 85.5935
L285.6617 85.5935
" />
<path d="M285.6617 85.5935
L285.6617 84.2935
" />
<path d="M285.6617 84.2935
L286.0950 84.2935
" />
<path d="M286.0950 84.2935
L286.2188 84.3554
" />
<path d="M286.2188 84.3554
L286.2807 84.4173
" />
<path d="M286.2807 84.4173
L286.3426 84.5411
" />
<path d="M286.3426 84.5411
L286.3426 84.6649
" />
<path d="M286.3426 84.6649
L286.2807 84.7887
" />
<path d="M286.2807 84.7887
L286.2188 84.8506
" />
<path d="M286.2188 84.8506
L286.0950 84.9125
" />
<path d="M286.0950 84.9125
L285.6617 84.9125
" />
</g><text x="286.0022" y="135.6500"
textLength="1.4972" font-size="1.7333" lengthAdjust="spacingAndGlyphs"
text-anchor="middle" opacity="0" stroke-opacity="0">C</text>
<g class="stroked-text"><desc>C</desc>
<path d="M286.4045 135.4696
L286.3426 135.5316
" />
<path d="M286.3426 135.5316
L286.1569 135.5935
" />
<path d="M286.1569 135.5935
L286.0331 135.5935
" />
<path d="M286.0331 135.5935
L285.8474 135.5316
" />
<path d="M285.8474 135.5316
L285.7236 135.4077
" />
<path d="M285.7236 135.4077
L285.6617 135.2839
" />
<path d="M285.6617 135.2839
L285.5998 135.0363
" />
<path d="M285.5998 135.0363
L285.5998 134.8506
" />
<path d="M285.5998 134.8506
L285.6617 134.6030
" />
<path d="M285.6617 134.6030
L285.7236 134.4792
" />
<path d="M285.7236 134.4792
L285.8474 134.3554
" />
<path d="M285.8474 134.3554
L286.0331 134.2935
" />
<path d="M286.0331 134.2935
L286.1569 134.2935
" />
<path d="M286.1569 134.2935
L286.3426 134.3554
" />
<path d="M286.3426 134.3554
L286.4045 134.4173
" />
</g><text x="286.0022" y="185.6500"
textLength="1.4972" font-size="1.7333" lengthAdjust="spacingAndGlyphs"
text-anchor="middle" opacity="0" stroke-opacity="0">D</text>
<g class="stroked-text"><desc>D</desc>
<path d="M285.6617 185.5935
L285.6617 184.2935
" />
<path d="M285.6617 184.2935
L285.9712 184.2935
" />
<path d="M285.9712 184.2935
L286.1569 184.3554
" />
<path d="M286.1569 184.3554
L286.2807 184.4792
" />
<path d="M286.2807 184.4792
L286.3426 184.6030
" />
<path d="M286.3426 184.6030
L286.4045 184.8506
" />
<path d="M286.4045 184.8506
L286.4045 185.0363
" />
<path d="M286.4045 185.0363
L286.3426 185.2839
" />
<path d="M286.3426 185.2839
L286.2807 185.4077
" />
<path d="M286.2807 185.4077
L286.1569 185.5316
" />
<path d="M286.1569 185.5316
L285.9712 185.5935
" />
<path d="M285.9712 185.5935
L285.6617 185.5935
" />
</g><text x="200.0022" y="193.8572"
textLength="7.0143" font-size="2.0000" lengthAdjust="spacingAndGlyphs"
text-anchor="start" opacity="0" stroke-opacity="0">Date: </text>
<g class="stroked-text"><desc>Date: </desc>
<path d="M200.4595 193.7931
L200.4595 192.2931
" />
<path d="M200.4595 192.2931
L200.8166 192.2931
" />
<path d="M200.8166 192.2931
L201.0309 192.3645
" />
<path d="M201.0309 192.3645
L201.1738 192.5074
" />
<path d="M201.1738 192.5074
L201.2452 192.6502
" />
<path d="M201.2452 192.6502
L201.3166 192.9359
" />
<path d="M201.3166 192.9359
L201.3166 193.1502
" />
<path d="M201.3166 193.1502
L201.2452 193.4359
" />
<path d="M201.2452 193.4359
L201.1738 193.5788
" />
<path d="M201.1738 193.5788
L201.0309 193.7217
" />
<path d="M201.0309 193.7217
L200.8166 193.7931
" />
<path d="M200.8166 193.7931
L200.4595 193.7931
" />
<path d="M202.6024 193.7931
L202.6024 193.0074
" />
<path d="M202.6024 193.0074
L202.5309 192.8645
" />
<path d="M202.5309 192.8645
L202.3881 192.7931
" />
<path d="M202.3881 192.7931
L202.1024 192.7931
" />
<path d="M202.1024 192.7931
L201.9595 192.8645
" />
<path d="M202.6024 193.7217
L202.4595 193.7931
" />
<path d="M202.4595 193.7931
L202.1024 193.7931
" />
<path d="M202.1024 193.7931
L201.9595 193.7217
" />
<path d="M201.9595 193.7217
L201.8881 193.5788
" />
<path d="M201.8881 193.5788
L201.8881 193.4359
" />
<path d="M201.8881 193.4359
L201.9595 193.2931
" />
<path d="M201.9595 193.2931
L202.1024 193.2217
" />
<path d="M202.1024 193.2217
L202.4595 193.2217
" />
<path d="M202.4595 193.2217
L202.6024 193.1502
" />
<path d="M203.1023 192.7931
L203.6737 192.7931
" />
<path d="M203.3166 192.2931
L203.3166 193.5788
" />
<path d="M203.3166 193.5788
L203.3880 193.7217
" />
<path d="M203.3880 193.7217
L203.5309 193.7931
" />
<path d="M203.5309 193.7931
L203.6737 193.7931
" />
<path d="M204.7451 193.7217
L204.6023 193.7931
" />
<path d="M204.6023 193.7931
L204.3166 193.7931
" />
<path d="M204.3166 193.7931
L204.1737 193.7217
" />
<path d="M204.1737 193.7217
L204.1023 193.5788
" />
<path d="M204.1023 193.5788
L204.1023 193.0074
" />
<path d="M204.1023 193.0074
L204.1737 192.8645
" />
<path d="M204.1737 192.8645
L204.3166 192.7931
" />
<path d="M204.3166 192.7931
L204.6023 192.7931
" />
<path d="M204.6023 192.7931
L204.7451 192.8645
" />
<path d="M204.7451 192.8645
L204.8166 193.0074
" />
<path d="M204.8166 193.0074
L204.8166 193.1502
" />
<path d="M204.8166 193.1502
L204.1023 193.2931
" />
<path d="M205.4594 193.6502
L205.5308 193.7217
" />
<path d="M205.5308 193.7217
L205.4594 193.7931
" />
<path d="M205.4594 193.7931
L205.3880 193.7217
" />
<path d="M205.3880 193.7217
L205.4594 193.6502
" />
<path d="M205.4594 193.6502
L205.4594 193.7931
" />
<path d="M205.4594 192.8645
L205.5308 192.9359
" />
<path d="M205.5308 192.9359
L205.4594 193.0074
" />
<path d="M205.4594 193.0074
L205.3880 192.9359
" />
<path d="M205.3880 192.9359
L205.4594 192.8645
" />
<path d="M205.4594 192.8645
L205.4594 193.0074
" />
</g><path d="M177.0022 194.5072
L285.0022 194.5072
" />
<text x="178.0022" y="196.6572"
textLength="20.8716" font-size="2.0000" lengthAdjust="spacingAndGlyphs"
text-anchor="start" opacity="0" stroke-opacity="0">KiCad E.D.A. 8.0.9</text>
<g class="stroked-text"><desc>KiCad E.D.A. 8.0.9</desc>
<path d="M178.4595 196.5931
L178.4595 195.0931
" />
<path d="M179.3166 196.5931
L178.6738 195.7359
" />
<path d="M179.3166 195.0931
L178.4595 195.9502
" />
<path d="M179.9595 196.5931
L179.9595 195.5931
" />
<path d="M179.9595 195.0931
L179.8881 195.1645
" />
<path d="M179.8881 195.1645
L179.9595 195.2359
" />
<path d="M179.9595 195.2359
L180.0309 195.1645
" />
<path d="M180.0309 195.1645
L179.9595 195.0931
" />
<path d="M179.9595 195.0931
L179.9595 195.2359
" />
<path d="M181.5309 196.4502
L181.4595 196.5217
" />
<path d="M181.4595 196.5217
L181.2452 196.5931
" />
<path d="M181.2452 196.5931
L181.1024 196.5931
" />
<path d="M181.1024 196.5931
L180.8881 196.5217
" />
<path d="M180.8881 196.5217
L180.7452 196.3788
" />
<path d="M180.7452 196.3788
L180.6738 196.2359
" />
<path d="M180.6738 196.2359
L180.6024 195.9502
" />
<path d="M180.6024 195.9502
L180.6024 195.7359
" />
<path d="M180.6024 195.7359
L180.6738 195.4502
" />
<path d="M180.6738 195.4502
L180.7452 195.3074
" />
<path d="M180.7452 195.3074
L180.8881 195.1645
" />
<path d="M180.8881 195.1645
L181.1024 195.0931
" />
<path d="M181.1024 195.0931
L181.2452 195.0931
" />
<path d="M181.2452 195.0931
L181.4595 195.1645
" />
<path d="M181.4595 195.1645
L181.5309 195.2359
" />
<path d="M182.8167 196.5931
L182.8167 195.8074
" />
<path d="M182.8167 195.8074
L182.7452 195.6645
" />
<path d="M182.7452 195.6645
L182.6024 195.5931
" />
<path d="M182.6024 195.5931
L182.3167 195.5931
" />
<path d="M182.3167 195.5931
L182.1738 195.6645
" />
<path d="M182.8167 196.5217
L182.6738 196.5931
" />
<path d="M182.6738 196.5931
L182.3167 196.5931
" />
<path d="M182.3167 196.5931
L182.1738 196.5217
" />
<path d="M182.1738 196.5217
L182.1024 196.3788
" />
<path d="M182.1024 196.3788
L182.1024 196.2359
" />
<path d="M182.1024 196.2359
L182.1738 196.0931
" />
<path d="M182.1738 196.0931
L182.3167 196.0217
" />
<path d="M182.3167 196.0217
L182.6738 196.0217
" />
<path d="M182.6738 196.0217
L182.8167 195.9502
" />
<path d="M184.1738 196.5931
L184.1738 195.0931
" />
<path d="M184.1738 196.5217
L184.0309 196.5931
" />
<path d="M184.0309 196.5931
L183.7452 196.5931
" />
<path d="M183.7452 196.5931
L183.6023 196.5217
" />
<path d="M183.6023 196.5217
L183.5309 196.4502
" />
<path d="M183.5309 196.4502
L183.4595 196.3074
" />
<path d="M183.4595 196.3074
L183.4595 195.8788
" />
<path d="M183.4595 195.8788
L183.5309 195.7359
" />
<path d="M183.5309 195.7359
L183.6023 195.6645
" />
<path d="M183.6023 195.6645
L183.7452 195.5931
" />
<path d="M183.7452 195.5931
L184.0309 195.5931
" />
<path d="M184.0309 195.5931
L184.1738 195.6645
" />
<path d="M186.0309 195.8074
L186.5309 195.8074
" />
<path d="M186.7452 196.5931
L186.0309 196.5931
" />
<path d="M186.0309 196.5931
L186.0309 195.0931
" />
<path d="M186.0309 195.0931
L186.7452 195.0931
" />
<path d="M187.3880 196.4502
L187.4594 196.5217
" />
<path d="M187.4594 196.5217
L187.3880 196.5931
" />
<path d="M187.3880 196.5931
L187.3166 196.5217
" />
<path d="M187.3166 196.5217
L187.3880 196.4502
" />
<path d="M187.3880 196.4502
L187.3880 196.5931
" />
<path d="M188.1023 196.5931
L188.1023 195.0931
" />
<path d="M188.1023 195.0931
L188.4594 195.0931
" />
<path d="M188.4594 195.0931
L188.6737 195.1645
" />
<path d="M188.6737 195.1645
L188.8166 195.3074
" />
<path d="M188.8166 195.3074
L188.8880 195.4502
" />
<path d="M188.8880 195.4502
L188.9594 195.7359
" />
<path d="M188.9594 195.7359
L188.9594 195.9502
" />
<path d="M188.9594 195.9502
L188.8880 196.2359
" />
<path d="M188.8880 196.2359
L188.8166 196.3788
" />
<path d="M188.8166 196.3788
L188.6737 196.5217
" />
<path d="M188.6737 196.5217
L188.4594 196.5931
" />
<path d="M188.4594 196.5931
L188.1023 196.5931
" />
<path d="M189.6023 196.4502
L189.6737 196.5217
" />
<path d="M189.6737 196.5217
L189.6023 196.5931
" />
<path d="M189.6023 196.5931
L189.5309 196.5217
" />
<path d="M189.5309 196.5217
L189.6023 196.4502
" />
<path d="M189.6023 196.4502
L189.6023 196.5931
" />
<path d="M190.2452 196.1645
L190.9595 196.1645
" />
<path d="M190.1023 196.5931
L190.6023 195.0931
" />
<path d="M190.6023 195.0931
L191.1023 196.5931
" />
<path d="M191.6023 196.4502
L191.6737 196.5217
" />
<path d="M191.6737 196.5217
L191.6023 196.5931
" />
<path d="M191.6023 196.5931
L191.5309 196.5217
" />
<path d="M191.5309 196.5217
L191.6023 196.4502
" />
<path d="M191.6023 196.4502
L191.6023 196.5931
" />
<path d="M193.6738 195.7359
L193.5309 195.6645
" />
<path d="M193.5309 195.6645
L193.4595 195.5931
" />
<path d="M193.4595 195.5931
L193.3881 195.4502
" />
<path d="M193.3881 195.4502
L193.3881 195.3788
" />
<path d="M193.3881 195.3788
L193.4595 195.2359
" />
<path d="M193.4595 195.2359
L193.5309 195.1645
" />
<path d="M193.5309 195.1645
L193.6738 195.0931
" />
<path d="M193.6738 195.0931
L193.9595 195.0931
" />
<path d="M193.9595 195.0931
L194.1024 195.1645
" />
<path d="M194.1024 195.1645
L194.1738 195.2359
" />
<path d="M194.1738 195.2359
L194.2452 195.3788
" />
<path d="M194.2452 195.3788
L194.2452 195.4502
" />
<path d="M194.2452 195.4502
L194.1738 195.5931
" />
<path d="M194.1738 195.5931
L194.1024 195.6645
" />
<path d="M194.1024 195.6645
L193.9595 195.7359
" />
<path d="M193.9595 195.7359
L193.6738 195.7359
" />
<path d="M193.6738 195.7359
L193.5309 195.8074
" />
<path d="M193.5309 195.8074
L193.4595 195.8788
" />
<path d="M193.4595 195.8788
L193.3881 196.0217
" />
<path d="M193.3881 196.0217
L193.3881 196.3074
" />
<path d="M193.3881 196.3074
L193.4595 196.4502
" />
<path d="M193.4595 196.4502
L193.5309 196.5217
" />
<path d="M193.5309 196.5217
L193.6738 196.5931
" />
<path d="M193.6738 196.5931
L193.9595 196.5931
" />
<path d="M193.9595 196.5931
L194.1024 196.5217
" />
<path d="M194.1024 196.5217
L194.1738 196.4502
" />
<path d="M194.1738 196.4502
L194.2452 196.3074
" />
<path d="M194.2452 196.3074
L194.2452 196.0217
" />
<path d="M194.2452 196.0217
L194.1738 195.8788
" />
<path d="M194.1738 195.8788
L194.1024 195.8074
" />
<path d="M194.1024 195.8074
L193.9595 195.7359
" />
<path d="M194.8881 196.4502
L194.9595 196.5217
" />
<path d="M194.9595 196.5217
L194.8881 196.5931
" />
<path d="M194.8881 196.5931
L194.8167 196.5217
" />
<path d="M194.8167 196.5217
L194.8881 196.4502
" />
<path d="M194.8881 196.4502
L194.8881 196.5931
" />
<path d="M195.8881 195.0931
L196.0310 195.0931
" />
<path d="M196.0310 195.0931
L196.1738 195.1645
" />
<path d="M196.1738 195.1645
L196.2453 195.2359
" />
<path d="M196.2453 195.2359
L196.3167 195.3788
" />
<path d="M196.3167 195.3788
L196.3881 195.6645
" />
<path d="M196.3881 195.6645
L196.3881 196.0217
" />
<path d="M196.3881 196.0217
L196.3167 196.3074
" />
<path d="M196.3167 196.3074
L196.2453 196.4502
" />
<path d="M196.2453 196.4502
L196.1738 196.5217
" />
<path d="M196.1738 196.5217
L196.0310 196.5931
" />
<path d="M196.0310 196.5931
L195.8881 196.5931
" />
<path d="M195.8881 196.5931
L195.7453 196.5217
" />
<path d="M195.7453 196.5217
L195.6738 196.4502
" />
<path d="M195.6738 196.4502
L195.6024 196.3074
" />
<path d="M195.6024 196.3074
L195.5310 196.0217
" />
<path d="M195.5310 196.0217
L195.5310 195.6645
" />
<path d="M195.5310 195.6645
L195.6024 195.3788
" />
<path d="M195.6024 195.3788
L195.6738 195.2359
" />
<path d="M195.6738 195.2359
L195.7453 195.1645
" />
<path d="M195.7453 195.1645
L195.8881 195.0931
" />
<path d="M197.0310 196.4502
L197.1024 196.5217
" />
<path d="M197.1024 196.5217
L197.0310 196.5931
" />
<path d="M197.0310 196.5931
L196.9596 196.5217
" />
<path d="M196.9596 196.5217
L197.0310 196.4502
" />
<path d="M197.0310 196.4502
L197.0310 196.5931
" />
<path d="M197.8167 196.5931
L198.1024 196.5931
" />
<path d="M198.1024 196.5931
L198.2453 196.5217
" />
<path d="M198.2453 196.5217
L198.3167 196.4502
" />
<path d="M198.3167 196.4502
L198.4596 196.2359
" />
<path d="M198.4596 196.2359
L198.5310 195.9502
" />
<path d="M198.5310 195.9502
L198.5310 195.3788
" />
<path d="M198.5310 195.3788
L198.4596 195.2359
" />
<path d="M198.4596 195.2359
L198.3882 195.1645
" />
<path d="M198.3882 195.1645
L198.2453 195.0931
" />
<path d="M198.2453 195.0931
L197.9596 195.0931
" />
<path d="M197.9596 195.0931
L197.8167 195.1645
" />
<path d="M197.8167 195.1645
L197.7453 195.2359
" />
<path d="M197.7453 195.2359
L197.6739 195.3788
" />
<path d="M197.6739 195.3788
L197.6739 195.7359
" />
<path d="M197.6739 195.7359
L197.7453 195.8788
" />
<path d="M197.7453 195.8788
L197.8167 195.9502
" />
<path d="M197.8167 195.9502
L197.9596 196.0217
" />
<path d="M197.9596 196.0217
L198.2453 196.0217
" />
<path d="M198.2453 196.0217
L198.3882 195.9502
" />
<path d="M198.3882 195.9502
L198.4596 195.8788
" />
<path d="M198.4596 195.8788
L198.5310 195.7359
" />
</g><path d="M177.0022 191.5072
L285.0022 191.5072
" />
</g>
<g style="fill:none; 
stroke:#840000; stroke-width:0.3000; stroke-opacity:1; 
stroke-linecap:round; stroke-linejoin:round;">
<text x="263.0022" y="193.8572"
textLength="6.3858" font-size="2.0000" lengthAdjust="spacingAndGlyphs"
text-anchor="start" opacity="0" stroke-opacity="0">Rev: </text>
<g class="stroked-text"><desc>Rev: </desc>
<path d="M264.4137 193.7855
L263.9137 193.0712
" />
<path d="M263.5566 193.7855
L263.5566 192.2855
" />
<path d="M263.5566 192.2855
L264.1280 192.2855
" />
<path d="M264.1280 192.2855
L264.2709 192.3569
" />
<path d="M264.2709 192.3569
L264.3423 192.4283
" />
<path d="M264.3423 192.4283
L264.4137 192.5712
" />
<path d="M264.4137 192.5712
L264.4137 192.7855
" />
<path d="M264.4137 192.7855
L264.3423 192.9283
" />
<path d="M264.3423 192.9283
L264.2709 192.9998
" />
<path d="M264.2709 192.9998
L264.1280 193.0712
" />
<path d="M264.1280 193.0712
L263.5566 193.0712
" />
<path d="M265.6280 193.7141
L265.4852 193.7855
" />
<path d="M265.4852 193.7855
L265.1995 193.7855
" />
<path d="M265.1995 193.7855
L265.0566 193.7141
" />
<path d="M265.0566 193.7141
L264.9852 193.5712
" />
<path d="M264.9852 193.5712
L264.9852 192.9998
" />
<path d="M264.9852 192.9998
L265.0566 192.8569
" />
<path d="M265.0566 192.8569
L265.1995 192.7855
" />
<path d="M265.1995 192.7855
L265.4852 192.7855
" />
<path d="M265.4852 192.7855
L265.6280 192.8569
" />
<path d="M265.6280 192.8569
L265.6995 192.9998
" />
<path d="M265.6995 192.9998
L265.6995 193.1426
" />
<path d="M265.6995 193.1426
L264.9852 193.2855
" />
<path d="M266.1994 192.7855
L266.5566 193.7855
" />
<path d="M266.5566 193.7855
L266.9137 192.7855
" />
<path d="M267.4852 193.6426
L267.5566 193.7141
" />
<path d="M267.5566 193.7141
L267.4852 193.7855
" />
<path d="M267.4852 193.7855
L267.4138 193.7141
" />
<path d="M267.4138 193.7141
L267.4852 193.6426
" />
<path d="M267.4852 193.6426
L267.4852 193.7855
" />
<path d="M267.4852 192.8569
L267.5566 192.9283
" />
<path d="M267.5566 192.9283
L267.4852 192.9998
" />
<path d="M267.4852 192.9998
L267.4138 192.9283
" />
<path d="M267.4138 192.9283
L267.4852 192.8569
" />
<path d="M267.4852 192.8569
L267.4852 192.9998
" />
</g></g>
<g style="fill:none; 
stroke:#840000; stroke-width:0.1524; stroke-opacity:1; 
stroke-linecap:round; stroke-linejoin:round;">
<text x="178.0022" y="193.8572"
textLength="9.3716" font-size="2.0000" lengthAdjust="spacingAndGlyphs"
text-anchor="start" opacity="0" stroke-opacity="0">Size: A4</text>
<g class="stroked-text"><desc>Size: A4</desc>
<path d="M178.3881 193.7217
L178.6024 193.7931
" />
<path d="M178.6024 193.7931
L178.9595 193.7931
" />
<path d="M178.9595 193.7931
L179.1024 193.7217
" />
<path d="M179.1024 193.7217
L179.1738 193.6502
" />
<path d="M179.1738 193.6502
L179.2452 193.5074
" />
<path d="M179.2452 193.5074
L179.2452 193.3645
" />
<path d="M179.2452 193.3645
L179.1738 193.2217
" />
<path d="M179.1738 193.2217
L179.1024 193.1502
" />
<path d="M179.1024 193.1502
L178.9595 193.0788
" />
<path d="M178.9595 193.0788
L178.6738 193.0074
" />
<path d="M178.6738 193.0074
L178.5309 192.9359
" />
<path d="M178.5309 192.9359
L178.4595 192.8645
" />
<path d="M178.4595 192.8645
L178.3881 192.7217
" />
<path d="M178.3881 192.7217
L178.3881 192.5788
" />
<path d="M178.3881 192.5788
L178.4595 192.4359
" />
<path d="M178.4595 192.4359
L178.5309 192.3645
" />
<path d="M178.5309 192.3645
L178.6738 192.2931
" />
<path d="M178.6738 192.2931
L179.0309 192.2931
" />
<path d="M179.0309 192.2931
L179.2452 192.3645
" />
<path d="M179.8881 193.7931
L179.8881 192.7931
" />
<path d="M179.8881 192.2931
L179.8167 192.3645
" />
<path d="M179.8167 192.3645
L179.8881 192.4359
" />
<path d="M179.8881 192.4359
L179.9595 192.3645
" />
<path d="M179.9595 192.3645
L179.8881 192.2931
" />
<path d="M179.8881 192.2931
L179.8881 192.4359
" />
<path d="M180.4595 192.7931
L181.2453 192.7931
" />
<path d="M181.2453 192.7931
L180.4595 193.7931
" />
<path d="M180.4595 193.7931
L181.2453 193.7931
" />
<path d="M182.3881 193.7217
L182.2453 193.7931
" />
<path d="M182.2453 193.7931
L181.9596 193.7931
" />
<path d="M181.9596 193.7931
L181.8167 193.7217
" />
<path d="M181.8167 193.7217
L181.7453 193.5788
" />
<path d="M181.7453 193.5788
L181.7453 193.0074
" />
<path d="M181.7453 193.0074
L181.8167 192.8645
" />
<path d="M181.8167 192.8645
L181.9596 192.7931
" />
<path d="M181.9596 192.7931
L182.2453 192.7931
" />
<path d="M182.2453 192.7931
L182.3881 192.8645
" />
<path d="M182.3881 192.8645
L182.4596 193.0074
" />
<path d="M182.4596 193.0074
L182.4596 193.1502
" />
<path d="M182.4596 193.1502
L181.7453 193.2931
" />
<path d="M183.1024 193.6502
L183.1738 193.7217
" />
<path d="M183.1738 193.7217
L183.1024 193.7931
" />
<path d="M183.1024 193.7931
L183.0310 193.7217
" />
<path d="M183.0310 193.7217
L183.1024 193.6502
" />
<path d="M183.1024 193.6502
L183.1024 193.7931
" />
<path d="M183.1024 192.8645
L183.1738 192.9359
" />
<path d="M183.1738 192.9359
L183.1024 193.0074
" />
<path d="M183.1024 193.0074
L183.0310 192.9359
" />
<path d="M183.0310 192.9359
L183.1024 192.8645
" />
<path d="M183.1024 192.8645
L183.1024 193.0074
" />
<path d="M184.8882 193.3645
L185.6025 193.3645
" />
<path d="M184.7453 193.7931
L185.2453 192.2931
" />
<path d="M185.2453 192.2931
L185.7453 193.7931
" />
<path d="M186.8882 192.7931
L186.8882 193.7931
" />
<path d="M186.5310 192.2217
L186.1739 193.2931
" />
<path d="M186.1739 193.2931
L187.1024 193.2931
" />
</g><text x="263.0022" y="196.6572"
textLength="8.5144" font-size="2.0000" lengthAdjust="spacingAndGlyphs"
text-anchor="start" opacity="0" stroke-opacity="0">Id: 1/1</text>
<g class="stroked-text"><desc>Id: 1/1</desc>
<path d="M263.4595 196.5931
L263.4595 195.0931
" />
<path d="M264.8167 196.5931
L264.8167 195.0931
" />
<path d="M264.8167 196.5217
L264.6738 196.5931
" />
<path d="M264.6738 196.5931
L264.3881 196.5931
" />
<path d="M264.3881 196.5931
L264.2452 196.5217
" />
<path d="M264.2452 196.5217
L264.1738 196.4502
" />
<path d="M264.1738 196.4502
L264.1024 196.3074
" />
<path d="M264.1024 196.3074
L264.1024 195.8788
" />
<path d="M264.1024 195.8788
L264.1738 195.7359
" />
<path d="M264.1738 195.7359
L264.2452 195.6645
" />
<path d="M264.2452 195.6645
L264.3881 195.5931
" />
<path d="M264.3881 195.5931
L264.6738 195.5931
" />
<path d="M264.6738 195.5931
L264.8167 195.6645
" />
<path d="M265.5309 196.4502
L265.6023 196.5217
" />
<path d="M265.6023 196.5217
L265.5309 196.5931
" />
<path d="M265.5309 196.5931
L265.4595 196.5217
" />
<path d="M265.4595 196.5217
L265.5309 196.4502
" />
<path d="M265.5309 196.4502
L265.5309 196.5931
" />
<path d="M265.5309 195.6645
L265.6023 195.7359
" />
<path d="M265.6023 195.7359
L265.5309 195.8074
" />
<path d="M265.5309 195.8074
L265.4595 195.7359
" />
<path d="M265.4595 195.7359
L265.5309 195.6645
" />
<path d="M265.5309 195.6645
L265.5309 195.8074
" />
<path d="M268.1738 196.5931
L267.3167 196.5931
" />
<path d="M267.7452 196.5931
L267.7452 195.0931
" />
<path d="M267.7452 195.0931
L267.6024 195.3074
" />
<path d="M267.6024 195.3074
L267.4595 195.4502
" />
<path d="M267.4595 195.4502
L267.3167 195.5217
" />
<path d="M269.8881 195.0217
L268.6024 196.9502
" />
<path d="M271.1738 196.5931
L270.3167 196.5931
" />
<path d="M270.7452 196.5931
L270.7452 195.0931
" />
<path d="M270.7452 195.0931
L270.6024 195.3074
" />
<path d="M270.6024 195.3074
L270.4595 195.4502
" />
<path d="M270.4595 195.4502
L270.3167 195.5217
" />
</g><path d="M177.0022 187.5072
L285.0022 187.5072
" />
</g>
<g style="fill:none; 
stroke:#840000; stroke-width:0.4000; stroke-opacity:1; 
stroke-linecap:round; stroke-linejoin:round;">
<text x="178.0022" y="190.3072"
textLength="22.7047" font-size="2.6666" lengthAdjust="spacingAndGlyphs"
text-anchor="start" opacity="0" stroke-opacity="0">Title: cap_only</text>
<g class="stroked-text"><desc>Title: cap_only</desc>
<path d="M178.6938 188.2116
L179.8367 188.2116
" />
<path d="M179.0153 190.2116
L179.2653 188.2116
" />
<path d="M180.2533 190.2116
L180.4200 188.8783
" />
<path d="M180.5033 188.2116
L180.3962 188.3068
" />
<path d="M180.3962 188.3068
L180.4795 188.4021
" />
<path d="M180.4795 188.4021
L180.5867 188.3068
" />
<path d="M180.5867 188.3068
L180.5033 188.2116
" />
<path d="M180.5033 188.2116
L180.4795 188.4021
" />
<path d="M181.0867 188.8783
L181.8486 188.8783
" />
<path d="M181.4557 188.2116
L181.2415 189.9259
" />
<path d="M181.2415 189.9259
L181.3129 190.1164
" />
<path d="M181.3129 190.1164
L181.4915 190.2116
" />
<path d="M181.4915 190.2116
L181.6819 190.2116
" />
<path d="M182.6344 190.2116
L182.4558 190.1164
" />
<path d="M182.4558 190.1164
L182.3844 189.9259
" />
<path d="M182.3844 189.9259
L182.5986 188.2116
" />
<path d="M184.1700 190.1164
L183.9677 190.2116
" />
<path d="M183.9677 190.2116
L183.5867 190.2116
" />
<path d="M183.5867 190.2116
L183.4081 190.1164
" />
<path d="M183.4081 190.1164
L183.3367 189.9259
" />
<path d="M183.3367 189.9259
L183.4320 189.1640
" />
<path d="M183.4320 189.1640
L183.5510 188.9735
" />
<path d="M183.5510 188.9735
L183.7534 188.8783
" />
<path d="M183.7534 188.8783
L184.1343 188.8783
" />
<path d="M184.1343 188.8783
L184.3129 188.9735
" />
<path d="M184.3129 188.9735
L184.3843 189.1640
" />
<path d="M184.3843 189.1640
L184.3605 189.3544
" />
<path d="M184.3605 189.3544
L183.3843 189.5449
" />
<path d="M185.1343 190.0211
L185.2177 190.1164
" />
<path d="M185.2177 190.1164
L185.1105 190.2116
" />
<path d="M185.1105 190.2116
L185.0272 190.1164
" />
<path d="M185.0272 190.1164
L185.1343 190.0211
" />
<path d="M185.1343 190.0211
L185.1105 190.2116
" />
<path d="M185.2653 188.9735
L185.3486 189.0687
" />
<path d="M185.3486 189.0687
L185.2415 189.1640
" />
<path d="M185.2415 189.1640
L185.1582 189.0687
" />
<path d="M185.1582 189.0687
L185.2653 188.9735
" />
<path d="M185.2653 188.9735
L185.2415 189.1640
" />
<path d="M188.4558 190.1164
L188.2534 190.2116
" />
<path d="M188.2534 190.2116
L187.8725 190.2116
" />
<path d="M187.8725 190.2116
L187.6939 190.1164
" />
<path d="M187.6939 190.1164
L187.6105 190.0211
" />
<path d="M187.6105 190.0211
L187.5391 189.8306
" />
<path d="M187.5391 189.8306
L187.6105 189.2592
" />
<path d="M187.6105 189.2592
L187.7296 189.0687
" />
<path d="M187.7296 189.0687
L187.8367 188.9735
" />
<path d="M187.8367 188.9735
L188.0391 188.8783
" />
<path d="M188.0391 188.8783
L188.4201 188.8783
" />
<path d="M188.4201 188.8783
L188.5986 188.9735
" />
<path d="M190.1582 190.2116
L190.2891 189.1640
" />
<path d="M190.2891 189.1640
L190.2177 188.9735
" />
<path d="M190.2177 188.9735
L190.0391 188.8783
" />
<path d="M190.0391 188.8783
L189.6582 188.8783
" />
<path d="M189.6582 188.8783
L189.4558 188.9735
" />
<path d="M190.1701 190.1164
L189.9677 190.2116
" />
<path d="M189.9677 190.2116
L189.4915 190.2116
" />
<path d="M189.4915 190.2116
L189.3129 190.1164
" />
<path d="M189.3129 190.1164
L189.2415 189.9259
" />
<path d="M189.2415 189.9259
L189.2653 189.7354
" />
<path d="M189.2653 189.7354
L189.3844 189.5449
" />
<path d="M189.3844 189.5449
L189.5868 189.4497
" />
<path d="M189.5868 189.4497
L190.0629 189.4497
" />
<path d="M190.0629 189.4497
L190.2653 189.3544
" />
<path d="M191.2772 188.8783
L191.0272 190.8783
" />
<path d="M191.2653 188.9735
L191.4677 188.8783
" />
<path d="M191.4677 188.8783
L191.8486 188.8783
" />
<path d="M191.8486 188.8783
L192.0272 188.9735
" />
<path d="M192.0272 188.9735
L192.1105 189.0687
" />
<path d="M192.1105 189.0687
L192.1820 189.2592
" />
<path d="M192.1820 189.2592
L192.1105 189.8306
" />
<path d="M192.1105 189.8306
L191.9915 190.0211
" />
<path d="M191.9915 190.0211
L191.8843 190.1164
" />
<path d="M191.8843 190.1164
L191.6820 190.2116
" />
<path d="M191.6820 190.2116
L191.3010 190.2116
" />
<path d="M191.3010 190.2116
L191.1224 190.1164
" />
<path d="M192.4200 190.4021
L193.9438 190.4021
" />
<path d="M194.7296 190.2116
L194.5510 190.1164
" />
<path d="M194.5510 190.1164
L194.4676 190.0211
" />
<path d="M194.4676 190.0211
L194.3962 189.8306
" />
<path d="M194.3962 189.8306
L194.4676 189.2592
" />
<path d="M194.4676 189.2592
L194.5867 189.0687
" />
<path d="M194.5867 189.0687
L194.6938 188.9735
" />
<path d="M194.6938 188.9735
L194.8962 188.8783
" />
<path d="M194.8962 188.8783
L195.1819 188.8783
" />
<path d="M195.1819 188.8783
L195.3605 188.9735
" />
<path d="M195.3605 188.9735
L195.4438 189.0687
" />
<path d="M195.4438 189.0687
L195.5153 189.2592
" />
<path d="M195.5153 189.2592
L195.4438 189.8306
" />
<path d="M195.4438 189.8306
L195.3248 190.0211
" />
<path d="M195.3248 190.0211
L195.2176 190.1164
" />
<path d="M195.2176 190.1164
L195.0153 190.2116
" />
<path d="M195.0153 190.2116
L194.7296 190.2116
" />
<path d="M196.4200 188.8783
L196.2533 190.2116
" />
<path d="M196.3962 189.0687
L196.5033 188.9735
" />
<path d="M196.5033 188.9735
L196.7057 188.8783
" />
<path d="M196.7057 188.8783
L196.9914 188.8783
" />
<path d="M196.9914 188.8783
L197.1700 188.9735
" />
<path d="M197.1700 188.9735
L197.2414 189.1640
" />
<path d="M197.2414 189.1640
L197.1105 190.2116
" />
<path d="M198.3486 190.2116
L198.1700 190.1164
" />
<path d="M198.1700 190.1164
L198.0986 189.9259
" />
<path d="M198.0986 189.9259
L198.3128 188.2116
" />
<path d="M199.0866 188.8783
L199.3962 190.2116
" />
<path d="M200.0390 188.8783
L199.3962 190.2116
" />
<path d="M199.3962 190.2116
L199.1462 190.6878
" />
<path d="M199.1462 190.6878
L199.0390 190.7830
" />
<path d="M199.0390 190.7830
L198.8366 190.8783
" />
</g></g>
<g style="fill:none; 
stroke:#840000; stroke-width:0.1524; stroke-opacity:1; 
stroke-linecap:round; stroke-linejoin:round;">
<text x="178.0022" y="186.4572"
textLength="27.5142" font-size="2.0000" lengthAdjust="spacingAndGlyphs"
text-anchor="start" opacity="0" stroke-opacity="0">File: cap_only.kicad_sch</text>
<g class="stroked-text"><desc>File: cap_only.kicad_sch</desc>
<path d="M178.9595 185.6074
L178.4595 185.6074
" />
<path d="M178.4595 186.3931
L178.4595 184.8931
" />
<path d="M178.4595 184.8931
L179.1738 184.8931
" />
<path d="M179.7452 186.3931
L179.7452 185.3931
" />
<path d="M179.7452 184.8931
L179.6738 184.9645
" />
<path d="M179.6738 184.9645
L179.7452 185.0359
" />
<path d="M179.7452 185.0359
L179.8166 184.9645
" />
<path d="M179.8166 184.9645
L179.7452 184.8931
" />
<path d="M179.7452 184.8931
L179.7452 185.0359
" />
<path d="M180.6738 186.3931
L180.5309 186.3217
" />
<path d="M180.5309 186.3217
L180.4595 186.1788
" />
<path d="M180.4595 186.1788
L180.4595 184.8931
" />
<path d="M181.8166 186.3217
L181.6738 186.3931
" />
<path d="M181.6738 186.3931
L181.3881 186.3931
" />
<path d="M181.3881 186.3931
L181.2452 186.3217
" />
<path d="M181.2452 186.3217
L181.1738 186.1788
" />
<path d="M181.1738 186.1788
L181.1738 185.6074
" />
<path d="M181.1738 185.6074
L181.2452 185.4645
" />
<path d="M181.2452 185.4645
L181.3881 185.3931
" />
<path d="M181.3881 185.3931
L181.6738 185.3931
" />
<path d="M181.6738 185.3931
L181.8166 185.4645
" />
<path d="M181.8166 185.4645
L181.8881 185.6074
" />
<path d="M181.8881 185.6074
L181.8881 185.7502
" />
<path d="M181.8881 185.7502
L181.1738 185.8931
" />
<path d="M182.5309 186.2502
L182.6023 186.3217
" />
<path d="M182.6023 186.3217
L182.5309 186.3931
" />
<path d="M182.5309 186.3931
L182.4595 186.3217
" />
<path d="M182.4595 186.3217
L182.5309 186.2502
" />
<path d="M182.5309 186.2502
L182.5309 186.3931
" />
<path d="M182.5309 185.4645
L182.6023 185.5359
" />
<path d="M182.6023 185.5359
L182.5309 185.6074
" />
<path d="M182.5309 185.6074
L182.4595 185.5359
" />
<path d="M182.4595 185.5359
L182.5309 185.4645
" />
<path d="M182.5309 185.4645
L182.5309 185.6074
" />
<path d="M185.0310 186.3217
L184.8881 186.3931
" />
<path d="M184.8881 186.3931
L184.6024 186.3931
" />
<path d="M184.6024 186.3931
L184.4595 186.3217
" />
<path d="M184.4595 186.3217
L184.3881 186.2502
" />
<path d="M184.3881 186.2502
L184.3167 186.1074
" />
<path d="M184.3167 186.1074
L184.3167 185.6788
" />
<path d="M184.3167 185.6788
L184.3881 185.5359
" />
<path d="M184.3881 185.5359
L184.4595 185.4645
" />
<path d="M184.4595 185.4645
L184.6024 185.3931
" />
<path d="M184.6024 185.3931
L184.8881 185.3931
" />
<path d="M184.8881 185.3931
L185.0310 185.4645
" />
<path d="M186.3167 186.3931
L186.3167 185.6074
" />
<path d="M186.3167 185.6074
L186.2452 185.4645
" />
<path d="M186.2452 185.4645
L186.1024 185.3931
" />
<path d="M186.1024 185.3931
L185.8167 185.3931
" />
<path d="M185.8167 185.3931
L185.6738 185.4645
" />
<path d="M186.3167 186.3217
L186.1738 186.3931
" />
<path d="M186.1738 186.3931
L185.8167 186.3931
" />
<path d="M185.8167 186.3931
L185.6738 186.3217
" />
<path d="M185.6738 186.3217
L185.6024 186.1788
" />
<path d="M185.6024 186.1788
L185.6024 186.0359
" />
<path d="M185.6024 186.0359
L185.6738 185.8931
" />
<path d="M185.6738 185.8931
L185.8167 185.8217
" />
<path d="M185.8167 185.8217
L186.1738 185.8217
" />
<path d="M186.1738 185.8217
L186.3167 185.7502
" />
<path d="M187.0309 185.3931
L187.0309 186.8931
" />
<path d="M187.0309 185.4645
L187.1738 185.3931
" />
<path d="M187.1738 185.3931
L187.4595 185.3931
" />
<path d="M187.4595 185.3931
L187.6023 185.4645
" />
<path d="M187.6023 185.4645
L187.6738 185.5359
" />
<path d="M187.6738 185.5359
L187.7452 185.6788
" />
<path d="M187.7452 185.6788
L187.7452 186.1074
" />
<path d="M187.7452 186.1074
L187.6738 186.2502
" />
<path d="M187.6738 186.2502
L187.6023 186.3217
" />
<path d="M187.6023 186.3217
L187.4595 186.3931
" />
<path d="M187.4595 186.3931
L187.1738 186.3931
" />
<path d="M187.1738 186.3931
L187.0309 186.3217
" />
<path d="M188.0309 186.5359
L189.1737 186.5359
" />
<path d="M189.7452 186.3931
L189.6023 186.3217
" />
<path d="M189.6023 186.3217
L189.5309 186.2502
" />
<path d="M189.5309 186.2502
L189.4595 186.1074
" />
<path d="M189.4595 186.1074
L189.4595 185.6788
" />
<path d="M189.4595 185.6788
L189.5309 185.5359
" />
<path d="M189.5309 185.5359
L189.6023 185.4645
" />
<path d="M189.6023 185.4645
L189.7452 185.3931
" />
<path d="M189.7452 185.3931
L189.9595 185.3931
" />
<path d="M189.9595 185.3931
L190.1023 185.4645
" />
<path d="M190.1023 185.4645
L190.1738 185.5359
" />
<path d="M190.1738 185.5359
L190.2452 185.6788
" />
<path d="M190.2452 185.6788
L190.2452 186.1074
" />
<path d="M190.2452 186.1074
L190.1738 186.2502
" />
<path d="M190.1738 186.2502
L190.1023 186.3217
" />
<path d="M190.1023 186.3217
L189.9595 186.3931
" />
<path d="M189.9595 186.3931
L189.7452 186.3931
" />
<path d="M190.8880 185.3931
L190.8880 186.3931
" />
<path d="M190.8880 185.5359
L190.9594 185.4645
" />
<path d="M190.9594 185.4645
L191.1023 185.3931
" />
<path d="M191.1023 185.3931
L191.3166 185.3931
" />
<path d="M191.3166 185.3931
L191.4594 185.4645
" />
<path d="M191.4594 185.4645
L191.5309 185.6074
" />
<path d="M191.5309 185.6074
L191.5309 186.3931
" />
<path d="M192.4594 186.3931
L192.3165 186.3217
" />
<path d="M192.3165 186.3217
L192.2451 186.1788
" />
<path d="M192.2451 186.1788
L192.2451 184.8931
" />
<path d="M192.8879 185.3931
L193.2451 186.3931
" />
<path d="M193.6022 185.3931
L193.2451 186.3931
" />
<path d="M193.2451 186.3931
L193.1022 186.7502
" />
<path d="M193.1022 186.7502
L193.0308 186.8217
" />
<path d="M193.0308 186.8217
L192.8879 186.8931
" />
<path d="M194.1737 186.2502
L194.2451 186.3217
" />
<path d="M194.2451 186.3217
L194.1737 186.3931
" />
<path d="M194.1737 186.3931
L194.1023 186.3217
" />
<path d="M194.1023 186.3217
L194.1737 186.2502
" />
<path d="M194.1737 186.2502
L194.1737 186.3931
" />
<path d="M194.8880 186.3931
L194.8880 184.8931
" />
<path d="M195.0309 185.8217
L195.4594 186.3931
" />
<path d="M195.4594 185.3931
L194.8880 185.9645
" />
<path d="M196.1023 186.3931
L196.1023 185.3931
" />
<path d="M196.1023 184.8931
L196.0309 184.9645
" />
<path d="M196.0309 184.9645
L196.1023 185.0359
" />
<path d="M196.1023 185.0359
L196.1737 184.9645
" />
<path d="M196.1737 184.9645
L196.1023 184.8931
" />
<path d="M196.1023 184.8931
L196.1023 185.0359
" />
<path d="M197.4595 186.3217
L197.3166 186.3931
" />
<path d="M197.3166 186.3931
L197.0309 186.3931
" />
<path d="M197.0309 186.3931
L196.8880 186.3217
" />
<path d="M196.8880 186.3217
L196.8166 186.2502
" />
<path d="M196.8166 186.2502
L196.7452 186.1074
" />
<path d="M196.7452 186.1074
L196.7452 185.6788
" />
<path d="M196.7452 185.6788
L196.8166 185.5359
" />
<path d="M196.8166 185.5359
L196.8880 185.4645
" />
<path d="M196.8880 185.4645
L197.0309 185.3931
" />
<path d="M197.0309 185.3931
L197.3166 185.3931
" />
<path d="M197.3166 185.3931
L197.4595 185.4645
" />
<path d="M198.7452 186.3931
L198.7452 185.6074
" />
<path d="M198.7452 185.6074
L198.6737 185.4645
" />
<path d="M198.6737 185.4645
L198.5309 185.3931
" />
<path d="M198.5309 185.3931
L198.2452 185.3931
" />
<path d="M198.2452 185.3931
L198.1023 185.4645
" />
<path d="M198.7452 186.3217
L198.6023 186.3931
" />
<path d="M198.6023 186.3931
L198.2452 186.3931
" />
<path d="M198.2452 186.3931
L198.1023 186.3217
" />
<path d="M198.1023 186.3217
L198.0309 186.1788
" />
<path d="M198.0309 186.1788
L198.0309 186.0359
" />
<path d="M198.0309 186.0359
L198.1023 185.8931
" />
<path d="M198.1023 185.8931
L198.2452 185.8217
" />
<path d="M198.2452 185.8217
L198.6023 185.8217
" />
<path d="M198.6023 185.8217
L198.7452 185.7502
" />
<path d="M200.1023 186.3931
L200.1023 184.8931
" />
<path d="M200.1023 186.3217
L199.9594 186.3931
" />
<path d="M199.9594 186.3931
L199.6737 186.3931
" />
<path d="M199.6737 186.3931
L199.5308 186.3217
" />
<path d="M199.5308 186.3217
L199.4594 186.2502
" />
<path d="M199.4594 186.2502
L199.3880 186.1074
" />
<path d="M199.3880 186.1074
L199.3880 185.6788
" />
<path d="M199.3880 185.6788
L199.4594 185.5359
" />
<path d="M199.4594 185.5359
L199.5308 185.4645
" />
<path d="M199.5308 185.4645
L199.6737 185.3931
" />
<path d="M199.6737 185.3931
L199.9594 185.3931
" />
<path d="M199.9594 185.3931
L200.1023 185.4645
" />
<path d="M200.4594 186.5359
L201.6022 186.5359
" />
<path d="M201.8880 186.3217
L202.0308 186.3931
" />
<path d="M202.0308 186.3931
L202.3165 186.3931
" />
<path d="M202.3165 186.3931
L202.4594 186.3217
" />
<path d="M202.4594 186.3217
L202.5308 186.1788
" />
<path d="M202.5308 186.1788
L202.5308 186.1074
" />
<path d="M202.5308 186.1074
L202.4594 185.9645
" />
<path d="M202.4594 185.9645
L202.3165 185.8931
" />
<path d="M202.3165 185.8931
L202.1023 185.8931
" />
<path d="M202.1023 185.8931
L201.9594 185.8217
" />
<path d="M201.9594 185.8217
L201.8880 185.6788
" />
<path d="M201.8880 185.6788
L201.8880 185.6074
" />
<path d="M201.8880 185.6074
L201.9594 185.4645
" />
<path d="M201.9594 185.4645
L202.1023 185.3931
" />
<path d="M202.1023 185.3931
L202.3165 185.3931
" />
<path d="M202.3165 185.3931
L202.4594 185.4645
" />
<path d="M203.8166 186.3217
L203.6737 186.3931
" />
<path d="M203.6737 186.3931
L203.3880 186.3931
" />
<path d="M203.3880 186.3931
L203.2451 186.3217
" />
<path d="M203.2451 186.3217
L203.1737 186.2502
" />
<path d="M203.1737 186.2502
L203.1023 186.1074
" />
<path d="M203.1023 186.1074
L203.1023 185.6788
" />
<path d="M203.1023 185.6788
L203.1737 185.5359
" />
<path d="M203.1737 185.5359
L203.2451 185.4645
" />
<path d="M203.2451 185.4645
L203.3880 185.3931
" />
<path d="M203.3880 185.3931
L203.6737 185.3931
" />
<path d="M203.6737 185.3931
L203.8166 185.4645
" />
<path d="M204.4594 186.3931
L204.4594 184.8931
" />
<path d="M205.1023 186.3931
L205.1023 185.6074
" />
<path d="M205.1023 185.6074
L205.0308 185.4645
" />
<path d="M205.0308 185.4645
L204.8880 185.3931
" />
<path d="M204.8880 185.3931
L204.6737 185.3931
" />
<path d="M204.6737 185.3931
L204.5308 185.4645
" />
<path d="M204.5308 185.4645
L204.4594 185.5359
" />
</g><path d="M177.0022 181.5072
L285.0022 181.5072
" />
<text x="178.0022" y="183.7572"
textLength="9.8000" font-size="2.0000" lengthAdjust="spacingAndGlyphs"
text-anchor="start" opacity="0" stroke-opacity="0">Sheet: /</text>
<g class="stroked-text"><desc>Sheet: /</desc>
<path d="M178.3881 183.6217
L178.6024 183.6931
" />
<path d="M178.6024 183.6931
L178.9595 183.6931
" />
<path d="M178.9595 183.6931
L179.1024 183.6217
" />
<path d="M179.1024 183.6217
L179.1738 183.5502
" />
<path d="M179.1738 183.5502
L179.2452 183.4074
" />
<path d="M179.2452 183.4074
L179.2452 183.2645
" />
<path d="M179.2452 183.2645
L179.1738 183.1217
" />
<path d="M179.1738 183.1217
L179.1024 183.0502
" />
<path d="M179.1024 183.0502
L178.9595 182.9788
" />
<path d="M178.9595 182.9788
L178.6738 182.9074
" />
<path d="M178.6738 182.9074
L178.5309 182.8359
" />
<path d="M178.5309 182.8359
L178.4595 182.7645
" />
<path d="M178.4595 182.7645
L178.3881 182.6217
" />
<path d="M178.3881 182.6217
L178.3881 182.4788
" />
<path d="M178.3881 182.4788
L178.4595 182.3359
" />
<path d="M178.4595 182.3359
L178.5309 182.2645
" />
<path d="M178.5309 182.2645
L178.6738 182.1931
" />
<path d="M178.6738 182.1931
L179.0309 182.1931
" />
<path d="M179.0309 182.1931
L179.2452 182.2645
" />
<path d="M179.8881 183.6931
L179.8881 182.1931
" />
<path d="M180.5310 183.6931
L180.5310 182.9074
" />
<path d="M180.5310 182.9074
L180.4595 182.7645
" />
<path d="M180.4595 182.7645
L180.3167 182.6931
" />
<path d="M180.3167 182.6931
L180.1024 182.6931
" />
<path d="M180.1024 182.6931
L179.9595 182.7645
" />
<path d="M179.9595 182.7645
L179.8881 182.8359
" />
<path d="M181.8166 183.6217
L181.6738 183.6931
" />
<path d="M181.6738 183.6931
L181.3881 183.6931
" />
<path d="M181.3881 183.6931
L181.2452 183.6217
" />
<path d="M181.2452 183.6217
L181.1738 183.4788
" />
<path d="M181.1738 183.4788
L181.1738 182.9074
" />
<path d="M181.1738 182.9074
L181.2452 182.7645
" />
<path d="M181.2452 182.7645
L181.3881 182.6931
" />
<path d="M181.3881 182.6931
L181.6738 182.6931
" />
<path d="M181.6738 182.6931
L181.8166 182.7645
" />
<path d="M181.8166 182.7645
L181.8881 182.9074
" />
<path d="M181.8881 182.9074
L181.8881 183.0502
" />
<path d="M181.8881 183.0502
L181.1738 183.1931
" />
<path d="M183.1023 183.6217
L182.9595 183.6931
" />
<path d="M182.9595 183.6931
L182.6738 183.6931
" />
<path d="M182.6738 183.6931
L182.5309 183.6217
" />
<path d="M182.5309 183.6217
L182.4595 183.4788
" />
<path d="M182.4595 183.4788
L182.4595 182.9074
" />
<path d="M182.4595 182.9074
L182.5309 182.7645
" />
<path d="M182.5309 182.7645
L182.6738 182.6931
" />
<path d="M182.6738 182.6931
L182.9595 182.6931
" />
<path d="M182.9595 182.6931
L183.1023 182.7645
" />
<path d="M183.1023 182.7645
L183.1738 182.9074
" />
<path d="M183.1738 182.9074
L183.1738 183.0502
" />
<path d="M183.1738 183.0502
L182.4595 183.1931
" />
<path d="M183.6023 182.6931
L184.1737 182.6931
" />
<path d="M183.8166 182.1931
L183.8166 183.4788
" />
<path d="M183.8166 183.4788
L183.8880 183.6217
" />
<path d="M183.8880 183.6217
L184.0309 183.6931
" />
<path d="M184.0309 183.6931
L184.1737 183.6931
" />
<path d="M184.6737 183.5502
L184.7451 183.6217
" />
<path d="M184.7451 183.6217
L184.6737 183.6931
" />
<path d="M184.6737 183.6931
L184.6023 183.6217
" />
<path d="M184.6023 183.6217
L184.6737 183.5502
" />
<path d="M184.6737 183.5502
L184.6737 183.6931
" />
<path d="M184.6737 182.7645
L184.7451 182.8359
" />
<path d="M184.7451 182.8359
L184.6737 182.9074
" />
<path d="M184.6737 182.9074
L184.6023 182.8359
" />
<path d="M184.6023 182.8359
L184.6737 182.7645
" />
<path d="M184.6737 182.7645
L184.6737 182.9074
" />
<path d="M187.6023 182.1217
L186.3166 184.0502
" />
</g></g>
<g style="fill:none; 
stroke:#840000; stroke-width:0.3000; stroke-opacity:1; 
stroke-linecap:round; stroke-linejoin:round;">
<text x="178.0022" y="180.7572"
textLength="0.9000" font-size="2.0000" lengthAdjust="spacingAndGlyphs"
text-anchor="start" opacity="0" stroke-opacity="0"></text>
<g class="stroked-text"><desc></desc>
</g></g>
<g style="fill:none; 
stroke:#840000; stroke-width:0.1524; stroke-opacity:1; 
stroke-linecap:round; stroke-linejoin:round;">
<text x="178.0022" y="177.7572"
textLength="0.4572" font-size="2.0000" lengthAdjust="spacingAndGlyphs"
text-anchor="start" opacity="0" stroke-opacity="0"></text>
<g class="stroked-text"><desc></desc>
</g><text x="178.0022" y="174.7572"
textLength="0.4572" font-size="2.0000" lengthAdjust="spacingAndGlyphs"
text-anchor="start" opacity="0" stroke-opacity="0"></text>
<g class="stroked-text"><desc></desc>
</g><text x="178.0022" y="171.7572"
textLength="39.5146" font-size="2.0000" lengthAdjust="spacingAndGlyphs"
text-anchor="start" opacity="0" stroke-opacity="0">Generated: 2026-04-05 13:51:41</text>
<g class="stroked-text"><desc>Generated: 2026-04-05 13:51:41</desc>
<path d="M179.2452 170.2645
L179.1024 170.1931
" />
<path d="M179.1024 170.1931
L178.8881 170.1931
" />
<path d="M178.8881 170.1931
L178.6738 170.2645
" />
<path d="M178.6738 170.2645
L178.5309 170.4074
" />
<path d="M178.5309 170.4074
L178.4595 170.5502
" />
<path d="M178.4595 170.5502
L178.3881 170.8359
" />
<path d="M178.3881 170.8359
L178.3881 171.0502
" />
<path d="M178.3881 171.0502
L178.4595 171.3359
" />
<path d="M178.4595 171.3359
L178.5309 171.4788
" />
<path d="M178.5309 171.4788
L178.6738 171.6217
" />
<path d="M178.6738 171.6217
L178.8881 171.6931
" />
<path d="M178.8881 171.6931
L179.0309 171.6931
" />
<path d="M179.0309 171.6931
L179.2452 171.6217
" />
<path d="M179.2452 171.6217
L179.3166 171.5502
" />
<path d="M179.3166 171.5502
L179.3166 171.0502
" />
<path d="M179.3166 171.0502
L179.0309 171.0502
" />
<path d="M180.5309 171.6217
L180.3881 171.6931
" />
<path d="M180.3881 171.6931
L180.1024 171.6931
" />
<path d="M180.1024 171.6931
L179.9595 171.6217
" />
<path d="M179.9595 171.6217
L179.8881 171.4788
" />
<path d="M179.8881 171.4788
L179.8881 170.9074
" />
<path d="M179.8881 170.9074
L179.9595 170.7645
" />
<path d="M179.9595 170.7645
L180.1024 170.6931
" />
<path d="M180.1024 170.6931
L180.3881 170.6931
" />
<path d="M180.3881 170.6931
L180.5309 170.7645
" />
<path d="M180.5309 170.7645
L180.6024 170.9074
" />
<path d="M180.6024 170.9074
L180.6024 171.0502
" />
<path d="M180.6024 171.0502
L179.8881 171.1931
" />
<path d="M181.2452 170.6931
L181.2452 171.6931
" />
<path d="M181.2452 170.8359
L181.3166 170.7645
" />
<path d="M181.3166 170.7645
L181.4595 170.6931
" />
<path d="M181.4595 170.6931
L181.6738 170.6931
" />
<path d="M181.6738 170.6931
L181.8166 170.7645
" />
<path d="M181.8166 170.7645
L181.8881 170.9074
" />
<path d="M181.8881 170.9074
L181.8881 171.6931
" />
<path d="M183.1737 171.6217
L183.0309 171.6931
" />
<path d="M183.0309 171.6931
L182.7452 171.6931
" />
<path d="M182.7452 171.6931
L182.6023 171.6217
" />
<path d="M182.6023 171.6217
L182.5309 171.4788
" />
<path d="M182.5309 171.4788
L182.5309 170.9074
" />
<path d="M182.5309 170.9074
L182.6023 170.7645
" />
<path d="M182.6023 170.7645
L182.7452 170.6931
" />
<path d="M182.7452 170.6931
L183.0309 170.6931
" />
<path d="M183.0309 170.6931
L183.1737 170.7645
" />
<path d="M183.1737 170.7645
L183.2452 170.9074
" />
<path d="M183.2452 170.9074
L183.2452 171.0502
" />
<path d="M183.2452 171.0502
L182.5309 171.1931
" />
<path d="M183.8880 171.6931
L183.8880 170.6931
" />
<path d="M183.8880 170.9788
L183.9594 170.8359
" />
<path d="M183.9594 170.8359
L184.0309 170.7645
" />
<path d="M184.0309 170.7645
L184.1737 170.6931
" />
<path d="M184.1737 170.6931
L184.3166 170.6931
" />
<path d="M185.4595 171.6931
L185.4595 170.9074
" />
<path d="M185.4595 170.9074
L185.3880 170.7645
" />
<path d="M185.3880 170.7645
L185.2452 170.6931
" />
<path d="M185.2452 170.6931
L184.9595 170.6931
" />
<path d="M184.9595 170.6931
L184.8166 170.7645
" />
<path d="M185.4595 171.6217
L185.3166 171.6931
" />
<path d="M185.3166 171.6931
L184.9595 171.6931
" />
<path d="M184.9595 171.6931
L184.8166 171.6217
" />
<path d="M184.8166 171.6217
L184.7452 171.4788
" />
<path d="M184.7452 171.4788
L184.7452 171.3359
" />
<path d="M184.7452 171.3359
L184.8166 171.1931
" />
<path d="M184.8166 171.1931
L184.9595 171.1217
" />
<path d="M184.9595 171.1217
L185.3166 171.1217
" />
<path d="M185.3166 171.1217
L185.4595 171.0502
" />
<path d="M185.9594 170.6931
L186.5308 170.6931
" />
<path d="M186.1737 170.1931
L186.1737 171.4788
" />
<path d="M186.1737 171.4788
L186.2451 171.6217
" />
<path d="M186.2451 171.6217
L186.3880 171.6931
" />
<path d="M186.3880 171.6931
L186.5308 171.6931
" />
<path d="M187.6022 171.6217
L187.4594 171.6931
" />
<path d="M187.4594 171.6931
L187.1737 171.6931
" />
<path d="M187.1737 171.6931
L187.0308 171.6217
" />
<path d="M187.0308 171.6217
L186.9594 171.4788
" />
<path d="M186.9594 171.4788
L186.9594 170.9074
" />
<path d="M186.9594 170.9074
L187.0308 170.7645
" />
<path d="M187.0308 170.7645
L187.1737 170.6931
" />
<path d="M187.1737 170.6931
L187.4594 170.6931
" />
<path d="M187.4594 170.6931
L187.6022 170.7645
" />
<path d="M187.6022 170.7645
L187.6737 170.9074
" />
<path d="M187.6737 170.9074
L187.6737 171.0502
" />
<path d="M187.6737 171.0502
L186.9594 171.1931
" />
<path d="M188.9594 171.6931
L188.9594 170.1931
" />
<path d="M188.9594 171.6217
L188.8165 171.6931
" />
<path d="M188.8165 171.6931
L188.5308 171.6931
" />
<path d="M188.5308 171.6931
L188.3879 171.6217
" />
<path d="M188.3879 171.6217
L188.3165 171.5502
" />
<path d="M188.3165 171.5502
L188.2451 171.4074
" />
<path d="M188.2451 171.4074
L188.2451 170.9788
" />
<path d="M188.2451 170.9788
L188.3165 170.8359
" />
<path d="M188.3165 170.8359
L188.3879 170.7645
" />
<path d="M188.3879 170.7645
L188.5308 170.6931
" />
<path d="M188.5308 170.6931
L188.8165 170.6931
" />
<path d="M188.8165 170.6931
L188.9594 170.7645
" />
<path d="M189.6736 171.5502
L189.7450 171.6217
" />
<path d="M189.7450 171.6217
L189.6736 171.6931
" />
<path d="M189.6736 171.6931
L189.6022 171.6217
" />
<path d="M189.6022 171.6217
L189.6736 171.5502
" />
<path d="M189.6736 171.5502
L189.6736 171.6931
" />
<path d="M189.6736 170.7645
L189.7450 170.8359
" />
<path d="M189.7450 170.8359
L189.6736 170.9074
" />
<path d="M189.6736 170.9074
L189.6022 170.8359
" />
<path d="M189.6022 170.8359
L189.6736 170.7645
" />
<path d="M189.6736 170.7645
L189.6736 170.9074
" />
<path d="M191.4594 170.3359
L191.5308 170.2645
" />
<path d="M191.5308 170.2645
L191.6737 170.1931
" />
<path d="M191.6737 170.1931
L192.0308 170.1931
" />
<path d="M192.0308 170.1931
L192.1737 170.2645
" />
<path d="M192.1737 170.2645
L192.2451 170.3359
" />
<path d="M192.2451 170.3359
L192.3165 170.4788
" />
<path d="M192.3165 170.4788
L192.3165 170.6217
" />
<path d="M192.3165 170.6217
L192.2451 170.8359
" />
<path d="M192.2451 170.8359
L191.3879 171.6931
" />
<path d="M191.3879 171.6931
L192.3165 171.6931
" />
<path d="M193.2451 170.1931
L193.3880 170.1931
" />
<path d="M193.3880 170.1931
L193.5308 170.2645
" />
<path d="M193.5308 170.2645
L193.6023 170.3359
" />
<path d="M193.6023 170.3359
L193.6737 170.4788
" />
<path d="M193.6737 170.4788
L193.7451 170.7645
" />
<path d="M193.7451 170.7645
L193.7451 171.1217
" />
<path d="M193.7451 171.1217
L193.6737 171.4074
" />
<path d="M193.6737 171.4074
L193.6023 171.5502
" />
<path d="M193.6023 171.5502
L193.5308 171.6217
" />
<path d="M193.5308 171.6217
L193.3880 171.6931
" />
<path d="M193.3880 171.6931
L193.2451 171.6931
" />
<path d="M193.2451 171.6931
L193.1023 171.6217
" />
<path d="M193.1023 171.6217
L193.0308 171.5502
" />
<path d="M193.0308 171.5502
L192.9594 171.4074
" />
<path d="M192.9594 171.4074
L192.8880 171.1217
" />
<path d="M192.8880 171.1217
L192.8880 170.7645
" />
<path d="M192.8880 170.7645
L192.9594 170.4788
" />
<path d="M192.9594 170.4788
L193.0308 170.3359
" />
<path d="M193.0308 170.3359
L193.1023 170.2645
" />
<path d="M193.1023 170.2645
L193.2451 170.1931
" />
<path d="M194.3166 170.3359
L194.3880 170.2645
" />
<path d="M194.3880 170.2645
L194.5309 170.1931
" />
<path d="M194.5309 170.1931
L194.8880 170.1931
" />
<path d="M194.8880 170.1931
L195.0309 170.2645
" />
<path d="M195.0309 170.2645
L195.1023 170.3359
" />
<path d="M195.1023 170.3359
L195.1737 170.4788
" />
<path d="M195.1737 170.4788
L195.1737 170.6217
" />
<path d="M195.1737 170.6217
L195.1023 170.8359
" />
<path d="M195.1023 170.8359
L194.2451 171.6931
" />
<path d="M194.2451 171.6931
L195.1737 171.6931
" />
<path d="M196.4595 170.1931
L196.1737 170.1931
" />
<path d="M196.1737 170.1931
L196.0309 170.2645
" />
<path d="M196.0309 170.2645
L195.9595 170.3359
" />
<path d="M195.9595 170.3359
L195.8166 170.5502
" />
<path d="M195.8166 170.5502
L195.7452 170.8359
" />
<path d="M195.7452 170.8359
L195.7452 171.4074
" />
<path d="M195.7452 171.4074
L195.8166 171.5502
" />
<path d="M195.8166 171.5502
L195.8880 171.6217
" />
<path d="M195.8880 171.6217
L196.0309 171.6931
" />
<path d="M196.0309 171.6931
L196.3166 171.6931
" />
<path d="M196.3166 171.6931
L196.4595 171.6217
" />
<path d="M196.4595 171.6217
L196.5309 171.5502
" />
<path d="M196.5309 171.5502
L196.6023 171.4074
" />
<path d="M196.6023 171.4074
L196.6023 171.0502
" />
<path d="M196.6023 171.0502
L196.5309 170.9074
" />
<path d="M196.5309 170.9074
L196.4595 170.8359
" />
<path d="M196.4595 170.8359
L196.3166 170.7645
" />
<path d="M196.3166 170.7645
L196.0309 170.7645
" />
<path d="M196.0309 170.7645
L195.8880 170.8359
" />
<path d="M195.8880 170.8359
L195.8166 170.9074
" />
<path d="M195.8166 170.9074
L195.7452 171.0502
" />
<path d="M197.2452 171.1217
L198.3881 171.1217
" />
<path d="M199.3880 170.1931
L199.5309 170.1931
" />
<path d="M199.5309 170.1931
L199.6737 170.2645
" />
<path d="M199.6737 170.2645
L199.7452 170.3359
" />
<path d="M199.7452 170.3359
L199.8166 170.4788
" />
<path d="M199.8166 170.4788
L199.8880 170.7645
" />
<path d="M199.8880 170.7645
L199.8880 171.1217
" />
<path d="M199.8880 171.1217
L199.8166 171.4074
" />
<path d="M199.8166 171.4074
L199.7452 171.5502
" />
<path d="M199.7452 171.5502
L199.6737 171.6217
" />
<path d="M199.6737 171.6217
L199.5309 171.6931
" />
<path d="M199.5309 171.6931
L199.3880 171.6931
" />
<path d="M199.3880 171.6931
L199.2452 171.6217
" />
<path d="M199.2452 171.6217
L199.1737 171.5502
" />
<path d="M199.1737 171.5502
L199.1023 171.4074
" />
<path d="M199.1023 171.4074
L199.0309 171.1217
" />
<path d="M199.0309 171.1217
L199.0309 170.7645
" />
<path d="M199.0309 170.7645
L199.1023 170.4788
" />
<path d="M199.1023 170.4788
L199.1737 170.3359
" />
<path d="M199.1737 170.3359
L199.2452 170.2645
" />
<path d="M199.2452 170.2645
L199.3880 170.1931
" />
<path d="M201.1738 170.6931
L201.1738 171.6931
" />
<path d="M200.8166 170.1217
L200.4595 171.1931
" />
<path d="M200.4595 171.1931
L201.3880 171.1931
" />
<path d="M201.9595 171.1217
L203.1024 171.1217
" />
<path d="M204.1023 170.1931
L204.2452 170.1931
" />
<path d="M204.2452 170.1931
L204.3880 170.2645
" />
<path d="M204.3880 170.2645
L204.4595 170.3359
" />
<path d="M204.4595 170.3359
L204.5309 170.4788
" />
<path d="M204.5309 170.4788
L204.6023 170.7645
" />
<path d="M204.6023 170.7645
L204.6023 171.1217
" />
<path d="M204.6023 171.1217
L204.5309 171.4074
" />
<path d="M204.5309 171.4074
L204.4595 171.5502
" />
<path d="M204.4595 171.5502
L204.3880 171.6217
" />
<path d="M204.3880 171.6217
L204.2452 171.6931
" />
<path d="M204.2452 171.6931
L204.1023 171.6931
" />
<path d="M204.1023 171.6931
L203.9595 171.6217
" />
<path d="M203.9595 171.6217
L203.8880 171.5502
" />
<path d="M203.8880 171.5502
L203.8166 171.4074
" />
<path d="M203.8166 171.4074
L203.7452 171.1217
" />
<path d="M203.7452 171.1217
L203.7452 170.7645
" />
<path d="M203.7452 170.7645
L203.8166 170.4788
" />
<path d="M203.8166 170.4788
L203.8880 170.3359
" />
<path d="M203.8880 170.3359
L203.9595 170.2645
" />
<path d="M203.9595 170.2645
L204.1023 170.1931
" />
<path d="M205.9595 170.1931
L205.2452 170.1931
" />
<path d="M205.2452 170.1931
L205.1738 170.9074
" />
<path d="M205.1738 170.9074
L205.2452 170.8359
" />
<path d="M205.2452 170.8359
L205.3881 170.7645
" />
<path d="M205.3881 170.7645
L205.7452 170.7645
" />
<path d="M205.7452 170.7645
L205.8881 170.8359
" />
<path d="M205.8881 170.8359
L205.9595 170.9074
" />
<path d="M205.9595 170.9074
L206.0309 171.0502
" />
<path d="M206.0309 171.0502
L206.0309 171.4074
" />
<path d="M206.0309 171.4074
L205.9595 171.5502
" />
<path d="M205.9595 171.5502
L205.8881 171.6217
" />
<path d="M205.8881 171.6217
L205.7452 171.6931
" />
<path d="M205.7452 171.6931
L205.3881 171.6931
" />
<path d="M205.3881 171.6931
L205.2452 171.6217
" />
<path d="M205.2452 171.6217
L205.1738 171.5502
" />
<path d="M208.6024 171.6931
L207.7453 171.6931
" />
<path d="M208.1738 171.6931
L208.1738 170.1931
" />
<path d="M208.1738 170.1931
L208.0310 170.4074
" />
<path d="M208.0310 170.4074
L207.8881 170.5502
" />
<path d="M207.8881 170.5502
L207.7453 170.6217
" />
<path d="M209.1024 170.1931
L210.0310 170.1931
" />
<path d="M210.0310 170.1931
L209.5310 170.7645
" />
<path d="M209.5310 170.7645
L209.7453 170.7645
" />
<path d="M209.7453 170.7645
L209.8882 170.8359
" />
<path d="M209.8882 170.8359
L209.9596 170.9074
" />
<path d="M209.9596 170.9074
L210.0310 171.0502
" />
<path d="M210.0310 171.0502
L210.0310 171.4074
" />
<path d="M210.0310 171.4074
L209.9596 171.5502
" />
<path d="M209.9596 171.5502
L209.8882 171.6217
" />
<path d="M209.8882 171.6217
L209.7453 171.6931
" />
<path d="M209.7453 171.6931
L209.3167 171.6931
" />
<path d="M209.3167 171.6931
L209.1739 171.6217
" />
<path d="M209.1739 171.6217
L209.1024 171.5502
" />
<path d="M210.6739 171.5502
L210.7453 171.6217
" />
<path d="M210.7453 171.6217
L210.6739 171.6931
" />
<path d="M210.6739 171.6931
L210.6025 171.6217
" />
<path d="M210.6025 171.6217
L210.6739 171.5502
" />
<path d="M210.6739 171.5502
L210.6739 171.6931
" />
<path d="M210.6739 170.7645
L210.7453 170.8359
" />
<path d="M210.7453 170.8359
L210.6739 170.9074
" />
<path d="M210.6739 170.9074
L210.6025 170.8359
" />
<path d="M210.6025 170.8359
L210.6739 170.7645
" />
<path d="M210.6739 170.7645
L210.6739 170.9074
" />
<path d="M212.1025 170.1931
L211.3882 170.1931
" />
<path d="M211.3882 170.1931
L211.3168 170.9074
" />
<path d="M211.3168 170.9074
L211.3882 170.8359
" />
<path d="M211.3882 170.8359
L211.5311 170.7645
" />
<path d="M211.5311 170.7645
L211.8882 170.7645
" />
<path d="M211.8882 170.7645
L212.0311 170.8359
" />
<path d="M212.0311 170.8359
L212.1025 170.9074
" />
<path d="M212.1025 170.9074
L212.1739 171.0502
" />
<path d="M212.1739 171.0502
L212.1739 171.4074
" />
<path d="M212.1739 171.4074
L212.1025 171.5502
" />
<path d="M212.1025 171.5502
L212.0311 171.6217
" />
<path d="M212.0311 171.6217
L211.8882 171.6931
" />
<path d="M211.8882 171.6931
L211.5311 171.6931
" />
<path d="M211.5311 171.6931
L211.3882 171.6217
" />
<path d="M211.3882 171.6217
L211.3168 171.5502
" />
<path d="M213.6025 171.6931
L212.7454 171.6931
" />
<path d="M213.1739 171.6931
L213.1739 170.1931
" />
<path d="M213.1739 170.1931
L213.0311 170.4074
" />
<path d="M213.0311 170.4074
L212.8882 170.5502
" />
<path d="M212.8882 170.5502
L212.7454 170.6217
" />
<path d="M214.2454 171.5502
L214.3168 171.6217
" />
<path d="M214.3168 171.6217
L214.2454 171.6931
" />
<path d="M214.2454 171.6931
L214.1740 171.6217
" />
<path d="M214.1740 171.6217
L214.2454 171.5502
" />
<path d="M214.2454 171.5502
L214.2454 171.6931
" />
<path d="M214.2454 170.7645
L214.3168 170.8359
" />
<path d="M214.3168 170.8359
L214.2454 170.9074
" />
<path d="M214.2454 170.9074
L214.1740 170.8359
" />
<path d="M214.1740 170.8359
L214.2454 170.7645
" />
<path d="M214.2454 170.7645
L214.2454 170.9074
" />
<path d="M215.6026 170.6931
L215.6026 171.6931
" />
<path d="M215.2454 170.1217
L214.8883 171.1931
" />
<path d="M214.8883 171.1931
L215.8168 171.1931
" />
<path d="M217.1740 171.6931
L216.3169 171.6931
" />
<path d="M216.7454 171.6931
L216.7454 170.1931
" />
<path d="M216.7454 170.1931
L216.6026 170.4074
" />
<path d="M216.6026 170.4074
L216.4597 170.5502
" />
<path d="M216.4597 170.5502
L216.3169 170.6217
" />
</g><text x="178.0022" y="168.7572"
textLength="0.4572" font-size="2.0000" lengthAdjust="spacingAndGlyphs"
text-anchor="start" opacity="0" stroke-opacity="0"></text>
<g class="stroked-text"><desc></desc>
</g><path d="M197.0022 191.5072
L197.0022 194.5072
" />
<path d="M261.0022 191.5072
L261.0022 198.0072
" />
<path style="fill:none; 
stroke:#840000; stroke-width:0.5080; stroke-opacity:1; 
stroke-linecap:round; stroke-linejoin:round;fill:none"
d="M 68.0320,40.7620
63.9680,40.7620
" /> 
<path style="fill:none; 
stroke:#840000; stroke-width:0.5080; stroke-opacity:1; 
stroke-linecap:round; stroke-linejoin:round;fill:none"
d="M 68.0320,39.2380
63.9680,39.2380
" /> 
</g>
<g style="fill:none; 
stroke:#840000; stroke-width:0.1524; stroke-opacity:1; 
stroke-linecap:round; stroke-linejoin:round;">
<path d="M66.0000 40.5400
L66.0000 42.5400
" />
<path d="M66.0000 39.4600
L66.0000 37.4600
" />
</g>
<g style="fill:none; 
stroke:#006464; stroke-width:0.1524; stroke-opacity:1; 
stroke-linecap:round; stroke-linejoin:round;">
<g transform="rotate(-90.000000 68.0000 41.6999)">
<text x="68.0000" y="42.3349"
textLength="2.6827" font-size="1.6933" lengthAdjust="spacingAndGlyphs"
text-anchor="middle" opacity="0" stroke-opacity="0">C1</text>
</g>
<g class="stroked-text"><desc>C1</desc>
<path d="M68.4586 41.9115
L68.5191 41.9719
" />
<path d="M68.5191 41.9719
L68.5795 42.1534
" />
<path d="M68.5795 42.1534
L68.5795 42.2743
" />
<path d="M68.5795 42.2743
L68.5191 42.4557
" />
<path d="M68.5191 42.4557
L68.3981 42.5767
" />
<path d="M68.3981 42.5767
L68.2771 42.6372
" />
<path d="M68.2771 42.6372
L68.0352 42.6976
" />
<path d="M68.0352 42.6976
L67.8538 42.6976
" />
<path d="M67.8538 42.6976
L67.6119 42.6372
" />
<path d="M67.6119 42.6372
L67.4910 42.5767
" />
<path d="M67.4910 42.5767
L67.3700 42.4557
" />
<path d="M67.3700 42.4557
L67.3095 42.2743
" />
<path d="M67.3095 42.2743
L67.3095 42.1534
" />
<path d="M67.3095 42.1534
L67.3700 41.9719
" />
<path d="M67.3700 41.9719
L67.4305 41.9115
" />
<path d="M68.5795 40.7019
L68.5795 41.4276
" />
<path d="M68.5795 41.0648
L67.3095 41.0648
" />
<path d="M67.3095 41.0648
L67.4910 41.1857
" />
<path d="M67.4910 41.1857
L67.6119 41.3067
" />
<path d="M67.6119 41.3067
L67.6724 41.4276
" />
</g><g transform="rotate(-90.000000 68.0000 38.2999)">
<text x="68.0000" y="38.9349"
textLength="7.5813" font-size="1.6933" lengthAdjust="spacingAndGlyphs"
text-anchor="middle" opacity="0" stroke-opacity="0">1e-06F</text>
</g>
<g class="stroked-text"><desc>1e-06F</desc>
<path d="M68.5795 41.0212
L68.5795 41.7469
" />
<path d="M68.5795 41.3841
L67.3095 41.3841
" />
<path d="M67.3095 41.3841
L67.4910 41.5050
" />
<path d="M67.4910 41.5050
L67.6119 41.6260
" />
<path d="M67.6119 41.6260
L67.6724 41.7469
" />
<path d="M68.5191 39.9932
L68.5795 40.1141
" />
<path d="M68.5795 40.1141
L68.5795 40.3560
" />
<path d="M68.5795 40.3560
L68.5191 40.4770
" />
<path d="M68.5191 40.4770
L68.3981 40.5374
" />
<path d="M68.3981 40.5374
L67.9143 40.5374
" />
<path d="M67.9143 40.5374
L67.7933 40.4770
" />
<path d="M67.7933 40.4770
L67.7329 40.3560
" />
<path d="M67.7329 40.3560
L67.7329 40.1141
" />
<path d="M67.7329 40.1141
L67.7933 39.9932
" />
<path d="M67.7933 39.9932
L67.9143 39.9327
" />
<path d="M67.9143 39.9327
L68.0352 39.9327
" />
<path d="M68.0352 39.9327
L68.1562 40.5374
" />
<path d="M68.0957 39.3884
L68.0957 38.4208
" />
<path d="M67.3095 37.5741
L67.3095 37.4531
" />
<path d="M67.3095 37.4531
L67.3700 37.3322
" />
<path d="M67.3700 37.3322
L67.4305 37.2717
" />
<path d="M67.4305 37.2717
L67.5514 37.2112
" />
<path d="M67.5514 37.2112
L67.7933 37.1507
" />
<path d="M67.7933 37.1507
L68.0957 37.1507
" />
<path d="M68.0957 37.1507
L68.3376 37.2112
" />
<path d="M68.3376 37.2112
L68.4586 37.2717
" />
<path d="M68.4586 37.2717
L68.5191 37.3322
" />
<path d="M68.5191 37.3322
L68.5795 37.4531
" />
<path d="M68.5795 37.4531
L68.5795 37.5741
" />
<path d="M68.5795 37.5741
L68.5191 37.6950
" />
<path d="M68.5191 37.6950
L68.4586 37.7555
" />
<path d="M68.4586 37.7555
L68.3376 37.8160
" />
<path d="M68.3376 37.8160
L68.0957 37.8764
" />
<path d="M68.0957 37.8764
L67.7933 37.8764
" />
<path d="M67.7933 37.8764
L67.5514 37.8160
" />
<path d="M67.5514 37.8160
L67.4305 37.7555
" />
<path d="M67.4305 37.7555
L67.3700 37.6950
" />
<path d="M67.3700 37.6950
L67.3095 37.5741
" />
<path d="M67.3095 36.0622
L67.3095 36.3041
" />
<path d="M67.3095 36.3041
L67.3700 36.4250
" />
<path d="M67.3700 36.4250
L67.4305 36.4855
" />
<path d="M67.4305 36.4855
L67.6119 36.6065
" />
<path d="M67.6119 36.6065
L67.8538 36.6669
" />
<path d="M67.8538 36.6669
L68.3376 36.6669
" />
<path d="M68.3376 36.6669
L68.4586 36.6065
" />
<path d="M68.4586 36.6065
L68.5191 36.5460
" />
<path d="M68.5191 36.5460
L68.5795 36.4250
" />
<path d="M68.5795 36.4250
L68.5795 36.1831
" />
<path d="M68.5795 36.1831
L68.5191 36.0622
" />
<path d="M68.5191 36.0622
L68.4586 36.0017
" />
<path d="M68.4586 36.0017
L68.3376 35.9412
" />
<path d="M68.3376 35.9412
L68.0352 35.9412
" />
<path d="M68.0352 35.9412
L67.9143 36.0017
" />
<path d="M67.9143 36.0017
L67.8538 36.0622
" />
<path d="M67.8538 36.0622
L67.7933 36.1831
" />
<path d="M67.7933 36.1831
L67.7933 36.4250
" />
<path d="M67.7933 36.4250
L67.8538 36.5460
" />
<path d="M67.8538 36.5460
L67.9143 36.6065
" />
<path d="M67.9143 36.6065
L68.0352 36.6669
" />
<path d="M67.9143 34.9736
L67.9143 35.3970
" />
<path d="M68.5795 35.3970
L67.3095 35.3970
" />
<path d="M67.3095 35.3970
L67.3095 34.7922
" />
</g></g>
<g style="fill:#FFFFC2; fill-opacity:1.0000; stroke:none;">
<circle cx="66.0000" cy="27.0000" r="2.5400" /> 
<path style="fill:none; 
stroke:#840000; stroke-width:0.2540; stroke-opacity:1; 
stroke-linecap:round; stroke-linejoin:round;fill:none"
d="M 67.2700,27.6350
67.2700,26.3650
" /> 
<path style="fill:none; 
stroke:#840000; stroke-width:0.2540; stroke-opacity:1; 
stroke-linecap:round; stroke-linejoin:round;fill:none"
d="M 64.7300,27.6350
64.7300,26.3650
" /> 
<path style="fill:none; 
stroke:#840000; stroke-width:0.2540; stroke-opacity:1; 
stroke-linecap:round; stroke-linejoin:round;fill:none"
d="M 67.9050,27.0000
68.5400,27.0000
" /> 
<path style="fill:none; 
stroke:#840000; stroke-width:0.2540; stroke-opacity:1; 
stroke-linecap:round; stroke-linejoin:round;fill:none"
d="M 64.0950,27.0000
65.3650,27.0000
" /> 
<path style="fill:none; 
stroke:#840000; stroke-width:0.2540; stroke-opacity:1; 
stroke-linecap:round; stroke-linejoin:round;fill:none"
d="M 64.0950,27.0000
63.4600,27.0000
" /> 
</g>
<g style="fill:none; 
stroke:#840000; stroke-width:0.2540; stroke-opacity:1; 
stroke-linecap:round; stroke-linejoin:round;">
<circle cx="66.0000" cy="27.0000" r="2.5400" /> 
</g>
<g style="fill:none; 
stroke:#840000; stroke-width:0.1588; stroke-opacity:1; 
stroke-linecap:round; stroke-linejoin:round;">
<g transform="rotate(-90.000000 64.0951 27.0000)">
<text x="64.0951" y="27.6350"
textLength="1.7948" font-size="1.6933" lengthAdjust="spacingAndGlyphs"
text-anchor="middle" opacity="0" stroke-opacity="0">+</text>
</g>
<g class="stroked-text"><desc>+</desc>
<path d="M64.1905 27.4838
L64.1905 26.5162
" />
<path d="M64.6743 27.0000
L63.7067 27.0000
" />
</g></g>
<g style="fill:none; 
stroke:#840000; stroke-width:0.1524; stroke-opacity:1; 
stroke-linecap:round; stroke-linejoin:round;">
<path d="M62.9200 27.0000
L60.9200 27.0000
" />
<path d="M69.0800 27.0000
L71.0800 27.0000
" />
</g>
<g style="fill:none; 
stroke:#006464; stroke-width:0.1524; stroke-opacity:1; 
stroke-linecap:round; stroke-linejoin:round;">
<g transform="rotate(-90.000000 68.0000 28.6999)">
<text x="68.0000" y="29.3349"
textLength="2.5013" font-size="1.6933" lengthAdjust="spacingAndGlyphs"
text-anchor="middle" opacity="0" stroke-opacity="0">V1</text>
</g>
<g class="stroked-text"><desc>V1</desc>
<path d="M67.3095 29.7279
L68.5795 29.3046
" />
<path d="M68.5795 29.3046
L67.3095 28.8812
" />
<path d="M68.5795 27.7926
L68.5795 28.5183
" />
<path d="M68.5795 28.1555
L67.3095 28.1555
" />
<path d="M67.3095 28.1555
L67.4910 28.2764
" />
<path d="M67.4910 28.2764
L67.6119 28.3974
" />
<path d="M67.6119 28.3974
L67.6724 28.5183
" />
</g><g transform="rotate(-90.000000 68.0000 25.3000)">
<text x="68.0000" y="25.9350"
textLength="4.3156" font-size="1.6933" lengthAdjust="spacingAndGlyphs"
text-anchor="middle" opacity="0" stroke-opacity="0">5.0V</text>
</g>
<g class="stroked-text"><desc>5.0V</desc>
<path d="M67.3095 26.4490
L67.3095 27.0538
" />
<path d="M67.3095 27.0538
L67.9143 27.1142
" />
<path d="M67.9143 27.1142
L67.8538 27.0538
" />
<path d="M67.8538 27.0538
L67.7933 26.9328
" />
<path d="M67.7933 26.9328
L67.7933 26.6304
" />
<path d="M67.7933 26.6304
L67.8538 26.5095
" />
<path d="M67.8538 26.5095
L67.9143 26.4490
" />
<path d="M67.9143 26.4490
L68.0352 26.3885
" />
<path d="M68.0352 26.3885
L68.3376 26.3885
" />
<path d="M68.3376 26.3885
L68.4586 26.4490
" />
<path d="M68.4586 26.4490
L68.5191 26.5095
" />
<path d="M68.5191 26.5095
L68.5795 26.6304
" />
<path d="M68.5795 26.6304
L68.5795 26.9328
" />
<path d="M68.5795 26.9328
L68.5191 27.0538
" />
<path d="M68.5191 27.0538
L68.4586 27.1142
" />
<path d="M68.4586 25.8443
L68.5191 25.7838
" />
<path d="M68.5191 25.7838
L68.5795 25.8443
" />
<path d="M68.5795 25.8443
L68.5191 25.9047
" />
<path d="M68.5191 25.9047
L68.4586 25.8443
" />
<path d="M68.4586 25.8443
L68.5795 25.8443
" />
<path d="M67.3095 24.9976
L67.3095 24.8766
" />
<path d="M67.3095 24.8766
L67.3700 24.7557
" />
<path d="M67.3700 24.7557
L67.4305 24.6952
" />
<path d="M67.4305 24.6952
L67.5514 24.6347
" />
<path d="M67.5514 24.6347
L67.7933 24.5742
" />
<path d="M67.7933 24.5742
L68.0957 24.5742
" />
<path d="M68.0957 24.5742
L68.3376 24.6347
" />
<path d="M68.3376 24.6347
L68.4586 24.6952
" />
<path d="M68.4586 24.6952
L68.5191 24.7557
" />
<path d="M68.5191 24.7557
L68.5795 24.8766
" />
<path d="M68.5795 24.8766
L68.5795 24.9976
" />
<path d="M68.5795 24.9976
L68.5191 25.1185
" />
<path d="M68.5191 25.1185
L68.4586 25.1790
" />
<path d="M68.4586 25.1790
L68.3376 25.2395
" />
<path d="M68.3376 25.2395
L68.0957 25.2999
" />
<path d="M68.0957 25.2999
L67.7933 25.2999
" />
<path d="M67.7933 25.2999
L67.5514 25.2395
" />
<path d="M67.5514 25.2395
L67.4305 25.1790
" />
<path d="M67.4305 25.1790
L67.3700 25.1185
" />
<path d="M67.3700 25.1185
L67.3095 24.9976
" />
<path d="M67.3095 24.2114
L68.5795 23.7881
" />
<path d="M68.5795 23.7881
L67.3095 23.3647
" />
</g><path style="fill:none; 
stroke:#840000; stroke-width:0.1524; stroke-opacity:1; 
stroke-linecap:round; stroke-linejoin:round;fill:none"
d="M 66.0000,80.0000
67.2700,80.0000
67.2700,78.7300
68.5400,80.0000
67.2700,81.2700
67.2700,80.0000
" /> 
</g>
<g style="fill:none; 
stroke:#840000; stroke-width:0.1524; stroke-opacity:1; 
stroke-linecap:round; stroke-linejoin:round;">
<path d="M66.0000 80.0000
L66.0000 80.0000
" />
</g>
<g style="fill:none; 
stroke:#006464; stroke-width:0.1524; stroke-opacity:1; 
stroke-linecap:round; stroke-linejoin:round;">
<g transform="rotate(-90.000000 68.0000 81.7000)">
<text x="68.0000" y="82.3350"
textLength="6.5532" font-size="1.6933" lengthAdjust="spacingAndGlyphs"
text-anchor="middle" opacity="0" stroke-opacity="0">#GND1</text>
</g>
<g class="stroked-text"><desc>#GND1</desc>
<path d="M67.7329 84.6330
L67.7329 83.7259
" />
<path d="M67.1886 84.2702
L68.8214 84.6330
" />
<path d="M68.2771 83.8469
L68.2771 84.7540
" />
<path d="M68.8214 84.2097
L67.1886 83.8469
" />
<path d="M67.3700 82.6373
L67.3095 82.7583
" />
<path d="M67.3095 82.7583
L67.3095 82.9397
" />
<path d="M67.3095 82.9397
L67.3700 83.1211
" />
<path d="M67.3700 83.1211
L67.4910 83.2421
" />
<path d="M67.4910 83.2421
L67.6119 83.3026
" />
<path d="M67.6119 83.3026
L67.8538 83.3630
" />
<path d="M67.8538 83.3630
L68.0352 83.3630
" />
<path d="M68.0352 83.3630
L68.2771 83.3026
" />
<path d="M68.2771 83.3026
L68.3981 83.2421
" />
<path d="M68.3981 83.2421
L68.5191 83.1211
" />
<path d="M68.5191 83.1211
L68.5795 82.9397
" />
<path d="M68.5795 82.9397
L68.5795 82.8188
" />
<path d="M68.5795 82.8188
L68.5191 82.6373
" />
<path d="M68.5191 82.6373
L68.4586 82.5769
" />
<path d="M68.4586 82.5769
L68.0352 82.5769
" />
<path d="M68.0352 82.5769
L68.0352 82.8188
" />
<path d="M68.5795 82.0326
L67.3095 82.0326
" />
<path d="M67.3095 82.0326
L68.5795 81.3069
" />
<path d="M68.5795 81.3069
L67.3095 81.3069
" />
<path d="M68.5795 80.7021
L67.3095 80.7021
" />
<path d="M67.3095 80.7021
L67.3095 80.3997
" />
<path d="M67.3095 80.3997
L67.3700 80.2183
" />
<path d="M67.3700 80.2183
L67.4910 80.0973
" />
<path d="M67.4910 80.0973
L67.6119 80.0368
" />
<path d="M67.6119 80.0368
L67.8538 79.9764
" />
<path d="M67.8538 79.9764
L68.0352 79.9764
" />
<path d="M68.0352 79.9764
L68.2771 80.0368
" />
<path d="M68.2771 80.0368
L68.3981 80.0973
" />
<path d="M68.3981 80.0973
L68.5191 80.2183
" />
<path d="M68.5191 80.2183
L68.5795 80.3997
" />
<path d="M68.5795 80.3997
L68.5795 80.7021
" />
<path d="M68.5795 78.7668
L68.5795 79.4925
" />
<path d="M68.5795 79.1297
L67.3095 79.1297
" />
<path d="M67.3095 79.1297
L67.4910 79.2506
" />
<path d="M67.4910 79.2506
L67.6119 79.3716
" />
<path d="M67.6119 79.3716
L67.6724 79.4925
" />
</g><g transform="rotate(-90.000000 68.0000 78.3000)">
<text x="68.0000" y="78.9350"
textLength="6.7344" font-size="1.6933" lengthAdjust="spacingAndGlyphs"
text-anchor="middle" opacity="0" stroke-opacity="0">ground</text>
</g>
<g class="stroked-text"><desc>ground</desc>
<path d="M67.7329 80.7189
L68.7610 80.7189
" />
<path d="M68.7610 80.7189
L68.8819 80.7794
" />
<path d="M68.8819 80.7794
L68.9424 80.8398
" />
<path d="M68.9424 80.8398
L69.0029 80.9608
" />
<path d="M69.0029 80.9608
L69.0029 81.1422
" />
<path d="M69.0029 81.1422
L68.9424 81.2632
" />
<path d="M68.5191 80.7189
L68.5795 80.8398
" />
<path d="M68.5795 80.8398
L68.5795 81.0817
" />
<path d="M68.5795 81.0817
L68.5191 81.2027
" />
<path d="M68.5191 81.2027
L68.4586 81.2632
" />
<path d="M68.4586 81.2632
L68.3376 81.3236
" />
<path d="M68.3376 81.3236
L67.9748 81.3236
" />
<path d="M67.9748 81.3236
L67.8538 81.2632
" />
<path d="M67.8538 81.2632
L67.7933 81.2027
" />
<path d="M67.7933 81.2027
L67.7329 81.0817
" />
<path d="M67.7329 81.0817
L67.7329 80.8398
" />
<path d="M67.7329 80.8398
L67.7933 80.7189
" />
<path d="M68.5795 80.1142
L67.7329 80.1142
" />
<path d="M67.9748 80.1142
L67.8538 80.0537
" />
<path d="M67.8538 80.0537
L67.7933 79.9932
" />
<path d="M67.7933 79.9932
L67.7329 79.8723
" />
<path d="M67.7329 79.8723
L67.7329 79.7513
" />
<path d="M68.5795 79.1465
L68.5191 79.2675
" />
<path d="M68.5191 79.2675
L68.4586 79.3280
" />
<path d="M68.4586 79.3280
L68.3376 79.3884
" />
<path d="M68.3376 79.3884
L67.9748 79.3884
" />
<path d="M67.9748 79.3884
L67.8538 79.3280
" />
<path d="M67.8538 79.3280
L67.7933 79.2675
" />
<path d="M67.7933 79.2675
L67.7329 79.1465
" />
<path d="M67.7329 79.1465
L67.7329 78.9651
" />
<path d="M67.7329 78.9651
L67.7933 78.8442
" />
<path d="M67.7933 78.8442
L67.8538 78.7837
" />
<path d="M67.8538 78.7837
L67.9748 78.7232
" />
<path d="M67.9748 78.7232
L68.3376 78.7232
" />
<path d="M68.3376 78.7232
L68.4586 78.7837
" />
<path d="M68.4586 78.7837
L68.5191 78.8442
" />
<path d="M68.5191 78.8442
L68.5795 78.9651
" />
<path d="M68.5795 78.9651
L68.5795 79.1465
" />
<path d="M67.7329 77.6347
L68.5795 77.6347
" />
<path d="M67.7329 78.1790
L68.3981 78.1790
" />
<path d="M68.3981 78.1790
L68.5191 78.1185
" />
<path d="M68.5191 78.1185
L68.5795 77.9975
" />
<path d="M68.5795 77.9975
L68.5795 77.8161
" />
<path d="M68.5795 77.8161
L68.5191 77.6952
" />
<path d="M68.5191 77.6952
L68.4586 77.6347
" />
<path d="M67.7329 77.0300
L68.5795 77.0300
" />
<path d="M67.8538 77.0300
L67.7933 76.9695
" />
<path d="M67.7933 76.9695
L67.7329 76.8485
" />
<path d="M67.7329 76.8485
L67.7329 76.6671
" />
<path d="M67.7329 76.6671
L67.7933 76.5462
" />
<path d="M67.7933 76.5462
L67.9143 76.4857
" />
<path d="M67.9143 76.4857
L68.5795 76.4857
" />
<path d="M68.5795 75.3367
L67.3095 75.3367
" />
<path d="M68.5191 75.3367
L68.5795 75.4576
" />
<path d="M68.5795 75.4576
L68.5795 75.6995
" />
<path d="M68.5795 75.6995
L68.5191 75.8205
" />
<path d="M68.5191 75.8205
L68.4586 75.8810
" />
<path d="M68.4586 75.8810
L68.3376 75.9414
" />
<path d="M68.3376 75.9414
L67.9748 75.9414
" />
<path d="M67.9748 75.9414
L67.8538 75.8810
" />
<path d="M67.8538 75.8810
L67.7933 75.8205
" />
<path d="M67.7933 75.8205
L67.7329 75.6995
" />
<path d="M67.7329 75.6995
L67.7329 75.4576
" />
<path d="M67.7329 75.4576
L67.7933 75.3367
" />
</g></g>
<g style="fill:none; 
stroke:#009600; stroke-width:0.1524; stroke-opacity:1; 
stroke-linecap:round; stroke-linejoin:round;">
<path d="M66.0000 43.0000
L66.0000 80.0000
" />
<path d="M66.0000 24.0000
L66.0000 37.0000
" />
<path d="M66.0000 30.0000
L66.0000 43.0000
" />
</g> 
</svg>
